<svg xmlns="http://www.w3.org/2000/svg" viewBox="0 0 1354 598"><defs><style>.cls-1,.cls-10{fill:#fff;}.cls-1,.cls-10,.cls-2,.cls-3,.cls-4,.cls-5,.cls-8,.cls-9{stroke:#000;}.cls-1,.cls-10,.cls-16,.cls-2,.cls-3,.cls-4,.cls-5,.cls-8,.cls-9{stroke-miterlimit:10;}.cls-1,.cls-16,.cls-9{stroke-width:2px;}.cls-2{fill:#30b678;}.cls-3{fill:#336991;}.cls-4{fill:#460155;}.cls-5{fill:#ffe51f;}.cls-6{font-size:19.75px;font-family:MyriadPro-Regular, Myriad Pro;}.cls-7{letter-spacing:-0.01em;}.cls-16,.cls-8,.cls-9{fill:none;}.cls-11{letter-spacing:-0.01em;}.cls-12{letter-spacing:-0.01em;}.cls-13{letter-spacing:0em;}.cls-14{letter-spacing:-0.01em;}.cls-15{letter-spacing:0em;}.cls-16{stroke:#891919;}.cls-17{fill:#891919;}</style></defs><g id="Camada_2" data-name="Camada 2"><rect class="cls-1" x="87.5" y="78.75" width="197" height="164" rx="14.06"/><path class="cls-2" d="M120.84,121.67l.24,4.15,1.3-.8c-.4-2.9.53-4.69,2.82-5.52,1.51-.55,2.86,0,3.86,1.62s1.07,3.31,0,4.32a4.85,4.85,0,0,1-6.15.13,2.69,2.69,0,0,0-1.49,3c.13,1.28.29,2.56.44,3.9l-1,.13c-.86.12-1.24-.11-1.13-1.12a17.87,17.87,0,0,0,0-3.43,3.39,3.39,0,0,0-1.55-2.79c-2.34,1.41-4,1.41-5.59,0a3.9,3.9,0,0,1-.08-5.56,3,3,0,0,1,2.14-.57,5.21,5.21,0,0,1,3.84,2.57,3.43,3.43,0,0,1,.32,2.07c-.16,1.21-.24,1.2,1.26,1.93,0-1.39.07-2.64.07-3.9,0-.12-.25-.25-.4-.35a6.25,6.25,0,0,1-2.9-5.32c-.14-1.81,1.36-3.11,3.65-3.43a3.4,3.4,0,0,1,3.86,2.69A5.46,5.46,0,0,1,120.84,121.67Z"/><path class="cls-2" d="M172.84,203.67l.24,4.15,1.3-.8c-.4-2.9.53-4.69,2.82-5.52,1.51-.55,2.86,0,3.86,1.62s1.07,3.31,0,4.32a4.85,4.85,0,0,1-6.15.13,2.69,2.69,0,0,0-1.49,3c.13,1.28.29,2.56.44,3.9l-1,.13c-.86.12-1.24-.11-1.13-1.12a17.87,17.87,0,0,0,0-3.43,3.39,3.39,0,0,0-1.55-2.79c-2.34,1.41-4,1.41-5.59,0a3.9,3.9,0,0,1-.08-5.56,3,3,0,0,1,2.14-.57,5.21,5.21,0,0,1,3.84,2.57,3.43,3.43,0,0,1,.32,2.07c-.16,1.21-.24,1.2,1.26,1.93,0-1.39.07-2.64.07-3.9,0-.12-.25-.25-.4-.35a6.25,6.25,0,0,1-2.9-5.32c-.14-1.81,1.36-3.11,3.65-3.43a3.4,3.4,0,0,1,3.86,2.69A5.46,5.46,0,0,1,172.84,203.67Z"/><path class="cls-2" d="M251.84,205.67l.24,4.15,1.3-.8c-.4-2.9.53-4.69,2.82-5.52,1.51-.55,2.86,0,3.86,1.62s1.07,3.31,0,4.32a4.85,4.85,0,0,1-6.15.13,2.69,2.69,0,0,0-1.49,3c.13,1.28.29,2.56.44,3.9l-1,.13c-.86.12-1.24-.11-1.13-1.12a17.87,17.87,0,0,0,0-3.43,3.39,3.39,0,0,0-1.55-2.79c-2.34,1.41-4,1.41-5.59,0a3.9,3.9,0,0,1-.08-5.56,3,3,0,0,1,2.14-.57,5.21,5.21,0,0,1,3.84,2.57,3.43,3.43,0,0,1,.32,2.07c-.16,1.21-.24,1.2,1.26,1.93,0-1.39.07-2.64.07-3.9,0-.12-.25-.25-.4-.35a6.25,6.25,0,0,1-2.9-5.32c-.14-1.81,1.36-3.11,3.65-3.43a3.4,3.4,0,0,1,3.86,2.69A5.46,5.46,0,0,1,251.84,205.67Z"/><path class="cls-3" d="M214,183.33c2.27.15,3,1,2.84,3.2a1.16,1.16,0,0,0,.48.85,1.75,1.75,0,0,1,1,2,1.14,1.14,0,0,0,.08.75c1,1.83.95,2.37-.61,3.65a3.23,3.23,0,0,1,.34,1.05c0,.44-.08,1.19-.32,1.27-1.24.42-1.63,1.73-2.6,2.34a6,6,0,0,1-2.15.3l.23,2.51H211v-2.46a7.11,7.11,0,0,1-2.28-.79,15.22,15.22,0,0,0-2.44-2.09,1.46,1.46,0,0,1-.53-1.21,6.69,6.69,0,0,0-.17-2.56,7.36,7.36,0,0,0-.7-2.14c-.5-.78,0-1.57.57-2.18a7,7,0,0,1,1-.71,2.53,2.53,0,0,1,.89-2.92c.65-.57,1.21-1.35,1.94-2C211,180.63,213.16,181,214,183.33Z"/><path class="cls-3" d="M155,152.33c2.27.15,3,1,2.84,3.2a1.16,1.16,0,0,0,.48.85,1.75,1.75,0,0,1,1,2,1.14,1.14,0,0,0,.08.75c1,1.83.95,2.37-.61,3.65a3.23,3.23,0,0,1,.34,1.05c0,.44-.08,1.19-.32,1.27-1.24.42-1.63,1.73-2.6,2.34a6,6,0,0,1-2.15.3l.23,2.51H152v-2.46a7.11,7.11,0,0,1-2.28-.79,15.22,15.22,0,0,0-2.44-2.09,1.46,1.46,0,0,1-.53-1.21,6.69,6.69,0,0,0-.17-2.56,7.36,7.36,0,0,0-.7-2.14c-.5-.78,0-1.57.57-2.18a7,7,0,0,1,1-.71,2.53,2.53,0,0,1,.89-2.92c.65-.57,1.21-1.35,1.94-2C152,149.63,154.16,150,155,152.33Z"/><path class="cls-3" d="M203,103.33c2.27.15,3,1,2.84,3.2a1.16,1.16,0,0,0,.48.85,1.75,1.75,0,0,1,1,2,1.14,1.14,0,0,0,.08.75c1,1.83.95,2.37-.61,3.65a3.23,3.23,0,0,1,.34,1c0,.44-.08,1.19-.32,1.27-1.24.42-1.63,1.73-2.6,2.34a6,6,0,0,1-2.15.3l.23,2.51H200v-2.46a7.11,7.11,0,0,1-2.28-.79,15.22,15.22,0,0,0-2.44-2.09,1.46,1.46,0,0,1-.53-1.21,6.69,6.69,0,0,0-.17-2.56,7.36,7.36,0,0,0-.7-2.14c-.5-.78,0-1.57.57-2.18a7,7,0,0,1,1-.71,2.53,2.53,0,0,1,.89-2.92c.65-.57,1.21-1.35,1.94-2C200,100.63,202.16,101,203,103.33Z"/><path class="cls-4" d="M231,157.91c-2.35,1.46-3.44,1.16-4.3-1.14-.22-.6-.88-1.2-.8-1.73a15.5,15.5,0,0,1,1.21-4.53c.59-1.18,2.24-1.83,3.06-3.1a.57.57,0,0,1,.35-.16,4.67,4.67,0,0,0,3.26-1.65,1.32,1.32,0,0,1,1.2-.29c1.09.77,2.31.59,3.49.75a1.44,1.44,0,0,1,.78.47,17,17,0,0,1,2.7,3.22,11.06,11.06,0,0,1,1.45,4.64c0,1.2-.45,2.48-.39,3.78a1.7,1.7,0,0,1-.9,1.18,3.81,3.81,0,0,1-5-1.7c-4.52.6-6.17,3.26-4.7,7.6h-2.5c-.14-1.81-.26-3.57.74-5.25A6,6,0,0,0,231,157.91Zm3-1.83-.9,1.85.22.2,2.24-1.62Z"/><path class="cls-4" d="M148,110.91c-2.35,1.46-3.44,1.16-4.3-1.14-.22-.6-.88-1.2-.8-1.73a15.5,15.5,0,0,1,1.21-4.53c.59-1.18,2.24-1.83,3.06-3.1a.57.57,0,0,1,.35-.16,4.67,4.67,0,0,0,3.26-1.65,1.32,1.32,0,0,1,1.2-.29c1.09.77,2.31.59,3.49.75a1.44,1.44,0,0,1,.78.47,17,17,0,0,1,2.7,3.22,11.06,11.06,0,0,1,1.45,4.64c0,1.2-.45,2.48-.39,3.78a1.7,1.7,0,0,1-.9,1.18,3.81,3.81,0,0,1-5-1.7c-4.52.6-6.17,3.26-4.7,7.6h-2.5c-.14-1.81-.26-3.57.74-5.25A6,6,0,0,0,148,110.91Zm3-1.83-.9,1.85.22.2,2.24-1.62Z"/><path class="cls-4" d="M117,186.91c-2.35,1.46-3.44,1.16-4.3-1.14-.22-.6-.88-1.2-.8-1.73a15.5,15.5,0,0,1,1.21-4.53c.59-1.18,2.24-1.83,3.06-3.1a.57.57,0,0,1,.35-.16,4.67,4.67,0,0,0,3.26-1.65,1.32,1.32,0,0,1,1.2-.29c1.09.77,2.31.59,3.49.75a1.44,1.44,0,0,1,.78.47,17,17,0,0,1,2.7,3.22,11.06,11.06,0,0,1,1.45,4.64c0,1.2-.45,2.48-.39,3.78a1.7,1.7,0,0,1-.9,1.18,3.81,3.81,0,0,1-5-1.7c-4.52.6-6.17,3.26-4.7,7.6h-2.5c-.14-1.81-.26-3.57.74-5.25A6,6,0,0,0,117,186.91Zm3-1.83-.9,1.85.22.2,2.24-1.62Z"/><path class="cls-5" d="M178.14,145l-2.65-.18c1.31-1.72,2.42-3.19,3.68-4.87l-2.44.18c1.63-2.7,3.11-5.14,4.59-7.57l.45-.07,4.68,7.67-2.48-.24,3.66,4.86L185,145c.85,1.29,1.63,2.45,2.37,3.63a3.12,3.12,0,0,1,.22,1,3.35,3.35,0,0,1-1,0c-.89-.26-1.77-.61-2.65-.92s-1.19,0-1.12.86a5.81,5.81,0,0,0,.09.58c.3,2.57.89,2.27-2.09,2.32-.85,0-1-.35-.87-1.08.1-.54.19-1.08.24-1.63.09-1.19-.12-1.37-1.23-1-.89.29-1.76.64-2.65.92a2,2,0,0,1-.77,0,1.82,1.82,0,0,1,.07-.85C176.41,147.55,177.22,146.35,178.14,145Z"/><path class="cls-5" d="M130.14,214l-2.65-.18c1.31-1.72,2.42-3.19,3.68-4.87l-2.44.18c1.63-2.7,3.11-5.14,4.59-7.57l.45-.07,4.68,7.67-2.48-.24,3.66,4.86L137,214c.85,1.29,1.63,2.45,2.37,3.63a3.12,3.12,0,0,1,.22,1,3.35,3.35,0,0,1-1,0c-.89-.26-1.77-.61-2.65-.92s-1.19,0-1.12.86a5.81,5.81,0,0,0,.09.58c.3,2.57.89,2.27-2.09,2.32-.85,0-1-.35-.87-1.08.1-.54.19-1.08.24-1.63.09-1.19-.12-1.37-1.23-1-.89.29-1.76.64-2.65.92a2,2,0,0,1-.77,0,1.82,1.82,0,0,1,.07-.85C128.41,216.55,129.22,215.35,130.14,214Z"/><path class="cls-5" d="M237.14,121l-2.65-.18c1.31-1.72,2.42-3.19,3.68-4.87l-2.44.18c1.63-2.7,3.11-5.14,4.59-7.57l.45-.07,4.68,7.67-2.48-.24,3.66,4.86L244,121c.85,1.29,1.63,2.45,2.37,3.63a3.12,3.12,0,0,1,.22,1,3.35,3.35,0,0,1-1,0c-.89-.26-1.77-.61-2.65-.92s-1.19,0-1.12.86a5.81,5.81,0,0,0,.09.58c.3,2.57.89,2.27-2.09,2.32-.85,0-1-.35-.87-1.08.1-.54.19-1.08.24-1.63.09-1.19-.12-1.37-1.23-1-.89.29-1.76.64-2.65.92a2,2,0,0,1-.77,0,1.82,1.82,0,0,1,.07-.85C235.41,123.55,236.22,122.35,237.14,121Z"/><text class="cls-6" transform="translate(114.66 61.53)">dados <tspan class="cls-7" x="54.65" y="0">c</tspan><tspan x="63.38" y="0">om labels</tspan></text><rect class="cls-1" x="90.87" y="336.42" width="197" height="164" rx="14.06"/><path class="cls-8" d="M148.93,410.53a8.2,8.2,0,1,0,8.19,8.19A8.2,8.2,0,0,0,148.93,410.53Zm-.2,12.48a.9.9,0,1,1,.91-.9h0A.91.91,0,0,1,148.73,423Zm1.56-4.18a2.18,2.18,0,0,0-.86,1.53H148a3.35,3.35,0,0,1,1.37-2.35c.49-.48.91-.87.91-1.45a1.12,1.12,0,0,0-1.08-1.16,1,1,0,0,0-.24,0,1.59,1.59,0,0,0-1.57,1.16L146,416a3,3,0,0,1,2.9-2,2.52,2.52,0,0,1,2.71,2.31,1.23,1.23,0,0,1,0,.26A3.13,3.13,0,0,1,150.29,418.83Z"/><path class="cls-8" d="M195.93,456.59a8.2,8.2,0,1,0,8.19,8.19A8.2,8.2,0,0,0,195.93,456.59Zm-.2,12.48a.9.9,0,1,1,.91-.9h0A.91.91,0,0,1,195.73,469.07Zm1.56-4.18a2.18,2.18,0,0,0-.86,1.53H195a3.35,3.35,0,0,1,1.37-2.35c.49-.48.91-.87.91-1.45a1.12,1.12,0,0,0-1.08-1.16,1,1,0,0,0-.24,0,1.59,1.59,0,0,0-1.57,1.16l-1.33-.59a3,3,0,0,1,2.9-2,2.52,2.52,0,0,1,2.71,2.31,1.23,1.23,0,0,1,0,.26A3.13,3.13,0,0,1,197.29,464.89Z"/><path class="cls-8" d="M161.93,362.59a8.2,8.2,0,1,0,8.19,8.19A8.2,8.2,0,0,0,161.93,362.59Zm-.2,12.48a.9.9,0,1,1,.91-.9h0A.91.91,0,0,1,161.73,375.07Zm1.56-4.18a2.18,2.18,0,0,0-.86,1.53H161a3.35,3.35,0,0,1,1.37-2.35c.49-.48.91-.87.91-1.45a1.12,1.12,0,0,0-1.08-1.16,1,1,0,0,0-.24,0,1.59,1.59,0,0,0-1.57,1.16l-1.33-.59a3,3,0,0,1,2.9-2,2.52,2.52,0,0,1,2.71,2.31,1.23,1.23,0,0,1,0,.26A3.13,3.13,0,0,1,163.29,370.89Z"/><path class="cls-8" d="M139.93,460.59a8.2,8.2,0,1,0,8.19,8.19A8.2,8.2,0,0,0,139.93,460.59Zm-.2,12.48a.9.9,0,1,1,.91-.9h0A.91.91,0,0,1,139.73,473.07Zm1.56-4.18a2.18,2.18,0,0,0-.86,1.53H139a3.35,3.35,0,0,1,1.37-2.35c.49-.48.91-.87.91-1.45a1.12,1.12,0,0,0-1.08-1.16,1,1,0,0,0-.24,0,1.59,1.59,0,0,0-1.57,1.16l-1.33-.59a3,3,0,0,1,2.9-2,2.52,2.52,0,0,1,2.71,2.31,1.23,1.23,0,0,1,0,.26A3.13,3.13,0,0,1,141.29,468.89Z"/><path class="cls-8" d="M222.93,364.59a8.2,8.2,0,1,0,8.19,8.19A8.2,8.2,0,0,0,222.93,364.59Zm-.2,12.48a.9.9,0,1,1,.91-.9h0A.91.91,0,0,1,222.73,377.07Zm1.56-4.18a2.18,2.18,0,0,0-.86,1.53H222a3.35,3.35,0,0,1,1.37-2.35c.49-.48.91-.87.91-1.45a1.12,1.12,0,0,0-1.08-1.16,1,1,0,0,0-.24,0,1.59,1.59,0,0,0-1.57,1.16l-1.33-.59a3,3,0,0,1,2.9-2,2.52,2.52,0,0,1,2.71,2.31,1.23,1.23,0,0,1,0,.26A3.13,3.13,0,0,1,224.29,372.89Z"/><path class="cls-8" d="M122.93,360.59a8.2,8.2,0,1,0,8.19,8.19A8.2,8.2,0,0,0,122.93,360.59Zm-.2,12.48a.9.9,0,1,1,.91-.9h0A.91.91,0,0,1,122.73,373.07Zm1.56-4.18a2.18,2.18,0,0,0-.86,1.53H122a3.35,3.35,0,0,1,1.37-2.35c.49-.48.91-.87.91-1.45a1.12,1.12,0,0,0-1.08-1.16,1,1,0,0,0-.24,0,1.59,1.59,0,0,0-1.57,1.16l-1.33-.59a3,3,0,0,1,2.9-2,2.52,2.52,0,0,1,2.71,2.31,1.23,1.23,0,0,1,0,.26A3.13,3.13,0,0,1,124.29,368.89Z"/><path class="cls-8" d="M119.93,418.59a8.2,8.2,0,1,0,8.19,8.19A8.2,8.2,0,0,0,119.93,418.59Zm-.2,12.48a.9.9,0,1,1,.91-.9h0A.91.91,0,0,1,119.73,431.07Zm1.56-4.18a2.18,2.18,0,0,0-.86,1.53H119a3.35,3.35,0,0,1,1.37-2.35c.49-.48.91-.87.91-1.45a1.12,1.12,0,0,0-1.08-1.16,1,1,0,0,0-.24,0,1.59,1.59,0,0,0-1.57,1.16l-1.33-.59a3,3,0,0,1,2.9-2,2.52,2.52,0,0,1,2.71,2.31,1.23,1.23,0,0,1,0,.26A3.13,3.13,0,0,1,121.29,426.89Z"/><path class="cls-8" d="M177.93,385.59a8.2,8.2,0,1,0,8.19,8.19A8.2,8.2,0,0,0,177.93,385.59Zm-.2,12.48a.9.9,0,1,1,.91-.9h0A.91.91,0,0,1,177.73,398.07Zm1.56-4.18a2.18,2.18,0,0,0-.86,1.53H177a3.35,3.35,0,0,1,1.37-2.35c.49-.48.91-.87.91-1.45a1.12,1.12,0,0,0-1.08-1.16,1,1,0,0,0-.24,0,1.59,1.59,0,0,0-1.57,1.16l-1.33-.59a3,3,0,0,1,2.9-2,2.52,2.52,0,0,1,2.71,2.31,1.23,1.23,0,0,1,0,.26A3.13,3.13,0,0,1,179.29,393.89Z"/><path class="cls-8" d="M133.93,385.59a8.2,8.2,0,1,0,8.19,8.19A8.2,8.2,0,0,0,133.93,385.59Zm-.2,12.48a.9.9,0,1,1,.91-.9h0A.91.91,0,0,1,133.73,398.07Zm1.56-4.18a2.18,2.18,0,0,0-.86,1.53H133a3.35,3.35,0,0,1,1.37-2.35c.49-.48.91-.87.91-1.45a1.12,1.12,0,0,0-1.08-1.16,1,1,0,0,0-.24,0,1.59,1.59,0,0,0-1.57,1.16l-1.33-.59a3,3,0,0,1,2.9-2,2.52,2.52,0,0,1,2.71,2.31,1.23,1.23,0,0,1,0,.26A3.13,3.13,0,0,1,135.29,393.89Z"/><path class="cls-8" d="M182.93,422.59a8.2,8.2,0,1,0,8.19,8.19A8.2,8.2,0,0,0,182.93,422.59Zm-.2,12.48a.9.9,0,1,1,.91-.9h0A.91.91,0,0,1,182.73,435.07Zm1.56-4.18a2.18,2.18,0,0,0-.86,1.53H182a3.35,3.35,0,0,1,1.37-2.35c.49-.48.91-.87.91-1.45a1.12,1.12,0,0,0-1.08-1.16,1,1,0,0,0-.24,0,1.59,1.59,0,0,0-1.57,1.16l-1.33-.59a3,3,0,0,1,2.9-2,2.52,2.52,0,0,1,2.71,2.31,1.23,1.23,0,0,1,0,.26A3.13,3.13,0,0,1,184.29,430.89Z"/><path class="cls-8" d="M230.93,416.59a8.2,8.2,0,1,0,8.19,8.19A8.2,8.2,0,0,0,230.93,416.59Zm-.2,12.48a.9.9,0,1,1,.91-.9h0A.91.91,0,0,1,230.73,429.07Zm1.56-4.18a2.18,2.18,0,0,0-.86,1.53H230a3.35,3.35,0,0,1,1.37-2.35c.49-.48.91-.87.91-1.45a1.12,1.12,0,0,0-1.08-1.16,1,1,0,0,0-.24,0,1.59,1.59,0,0,0-1.57,1.16l-1.33-.59a3,3,0,0,1,2.9-2,2.52,2.52,0,0,1,2.71,2.31,1.23,1.23,0,0,1,0,.26A3.13,3.13,0,0,1,232.29,424.89Z"/><path class="cls-8" d="M261.93,378.59a8.2,8.2,0,1,0,8.19,8.19A8.2,8.2,0,0,0,261.93,378.59Zm-.2,12.48a.9.9,0,1,1,.91-.9h0A.91.91,0,0,1,261.73,391.07Zm1.56-4.18a2.18,2.18,0,0,0-.86,1.53H261a3.35,3.35,0,0,1,1.37-2.35c.49-.48.91-.87.91-1.45a1.12,1.12,0,0,0-1.08-1.16,1,1,0,0,0-.24,0,1.59,1.59,0,0,0-1.57,1.16l-1.33-.59a3,3,0,0,1,2.9-2,2.52,2.52,0,0,1,2.71,2.31,1.23,1.23,0,0,1,0,.26A3.13,3.13,0,0,1,263.29,386.89Z"/><path class="cls-8" d="M190.93,348.59a8.2,8.2,0,1,0,8.19,8.19A8.2,8.2,0,0,0,190.93,348.59Zm-.2,12.48a.9.9,0,1,1,.91-.9h0A.91.91,0,0,1,190.73,361.07Zm1.56-4.18a2.18,2.18,0,0,0-.86,1.53H190a3.35,3.35,0,0,1,1.37-2.35c.49-.48.91-.87.91-1.45a1.12,1.12,0,0,0-1.08-1.16,1,1,0,0,0-.24,0,1.59,1.59,0,0,0-1.57,1.16l-1.33-.59a3,3,0,0,1,2.9-2,2.52,2.52,0,0,1,2.71,2.31,1.23,1.23,0,0,1,0,.26A3.13,3.13,0,0,1,192.29,356.89Z"/><path class="cls-8" d="M250.93,352.59a8.2,8.2,0,1,0,8.19,8.19A8.2,8.2,0,0,0,250.93,352.59Zm-.2,12.48a.9.9,0,1,1,.91-.9h0A.91.91,0,0,1,250.73,365.07Zm1.56-4.18a2.18,2.18,0,0,0-.86,1.53H250a3.35,3.35,0,0,1,1.37-2.35c.49-.48.91-.87.91-1.45a1.12,1.12,0,0,0-1.08-1.16,1,1,0,0,0-.24,0,1.59,1.59,0,0,0-1.57,1.16l-1.33-.59a3,3,0,0,1,2.9-2,2.52,2.52,0,0,1,2.71,2.31,1.23,1.23,0,0,1,0,.26A3.13,3.13,0,0,1,252.29,360.89Z"/><path class="cls-8" d="M261.93,426.59a8.2,8.2,0,1,0,8.19,8.19A8.2,8.2,0,0,0,261.93,426.59Zm-.2,12.48a.9.9,0,1,1,.91-.9h0A.91.91,0,0,1,261.73,439.07Zm1.56-4.18a2.18,2.18,0,0,0-.86,1.53H261a3.35,3.35,0,0,1,1.37-2.35c.49-.48.91-.87.91-1.45a1.12,1.12,0,0,0-1.08-1.16,1,1,0,0,0-.24,0,1.59,1.59,0,0,0-1.57,1.16l-1.33-.59a3,3,0,0,1,2.9-2,2.52,2.52,0,0,1,2.71,2.31,1.23,1.23,0,0,1,0,.26A3.13,3.13,0,0,1,263.29,434.89Z"/><path class="cls-8" d="M251.93,470.59a8.2,8.2,0,1,0,8.19,8.19A8.2,8.2,0,0,0,251.93,470.59Zm-.2,12.48a.9.9,0,1,1,.91-.9h0A.91.91,0,0,1,251.73,483.07Zm1.56-4.18a2.18,2.18,0,0,0-.86,1.53H251a3.35,3.35,0,0,1,1.37-2.35c.49-.48.91-.87.91-1.45a1.12,1.12,0,0,0-1.08-1.16,1,1,0,0,0-.24,0,1.59,1.59,0,0,0-1.57,1.16l-1.33-.59a3,3,0,0,1,2.9-2,2.52,2.52,0,0,1,2.71,2.31,1.23,1.23,0,0,1,0,.26A3.13,3.13,0,0,1,253.29,478.89Z"/><path class="cls-8" d="M229.93,448.59a8.2,8.2,0,1,0,8.19,8.19A8.2,8.2,0,0,0,229.93,448.59Zm-.2,12.48a.9.9,0,1,1,.91-.9h0A.91.91,0,0,1,229.73,461.07Zm1.56-4.18a2.18,2.18,0,0,0-.86,1.53H229a3.35,3.35,0,0,1,1.37-2.35c.49-.48.91-.87.91-1.45a1.12,1.12,0,0,0-1.08-1.16,1,1,0,0,0-.24,0,1.59,1.59,0,0,0-1.57,1.16l-1.33-.59a3,3,0,0,1,2.9-2,2.52,2.52,0,0,1,2.71,2.31,1.23,1.23,0,0,1,0,.26A3.13,3.13,0,0,1,231.29,456.89Z"/><path class="cls-8" d="M206.93,428.59a8.2,8.2,0,1,0,8.19,8.19A8.2,8.2,0,0,0,206.93,428.59Zm-.2,12.48a.9.9,0,1,1,.91-.9h0A.91.91,0,0,1,206.73,441.07Zm1.56-4.18a2.18,2.18,0,0,0-.86,1.53H206a3.35,3.35,0,0,1,1.37-2.35c.49-.48.91-.87.91-1.45a1.12,1.12,0,0,0-1.08-1.16,1,1,0,0,0-.24,0,1.59,1.59,0,0,0-1.57,1.16l-1.33-.59a3,3,0,0,1,2.9-2,2.52,2.52,0,0,1,2.71,2.31,1.23,1.23,0,0,1,0,.26A3.13,3.13,0,0,1,208.29,436.89Z"/><path class="cls-8" d="M164.93,443.59a8.2,8.2,0,1,0,8.19,8.19A8.2,8.2,0,0,0,164.93,443.59Zm-.2,12.48a.9.9,0,1,1,.91-.9h0A.91.91,0,0,1,164.73,456.07Zm1.56-4.18a2.18,2.18,0,0,0-.86,1.53H164a3.35,3.35,0,0,1,1.37-2.35c.49-.48.91-.87.91-1.45a1.12,1.12,0,0,0-1.08-1.16,1,1,0,0,0-.24,0,1.59,1.59,0,0,0-1.57,1.16l-1.33-.59a3,3,0,0,1,2.9-2,2.52,2.52,0,0,1,2.71,2.31,1.23,1.23,0,0,1,0,.26A3.13,3.13,0,0,1,166.29,451.89Z"/><path class="cls-8" d="M140.93,434.59a8.2,8.2,0,1,0,8.19,8.19A8.2,8.2,0,0,0,140.93,434.59Zm-.2,12.48a.9.9,0,1,1,.91-.9h0A.91.91,0,0,1,140.73,447.07Zm1.56-4.18a2.18,2.18,0,0,0-.86,1.53H140a3.35,3.35,0,0,1,1.37-2.35c.49-.48.91-.87.91-1.45a1.12,1.12,0,0,0-1.08-1.16,1,1,0,0,0-.24,0,1.59,1.59,0,0,0-1.57,1.16l-1.33-.59a3,3,0,0,1,2.9-2,2.52,2.52,0,0,1,2.71,2.31,1.23,1.23,0,0,1,0,.26A3.13,3.13,0,0,1,142.29,442.89Z"/><path class="cls-8" d="M114.93,442.59a8.2,8.2,0,1,0,8.19,8.19A8.2,8.2,0,0,0,114.93,442.59Zm-.2,12.48a.9.9,0,1,1,.91-.9h0A.91.91,0,0,1,114.73,455.07Zm1.56-4.18a2.18,2.18,0,0,0-.86,1.53H114a3.35,3.35,0,0,1,1.37-2.35c.49-.48.91-.87.91-1.45a1.12,1.12,0,0,0-1.08-1.16,1,1,0,0,0-.24,0,1.59,1.59,0,0,0-1.57,1.16l-1.33-.59a3,3,0,0,1,2.9-2,2.52,2.52,0,0,1,2.71,2.31,1.23,1.23,0,0,1,0,.26A3.13,3.13,0,0,1,116.29,450.89Z"/><path class="cls-8" d="M113.93,473.59a8.2,8.2,0,1,0,8.19,8.19A8.2,8.2,0,0,0,113.93,473.59Zm-.2,12.48a.9.9,0,1,1,.91-.9h0A.91.91,0,0,1,113.73,486.07Zm1.56-4.18a2.18,2.18,0,0,0-.86,1.53H113a3.35,3.35,0,0,1,1.37-2.35c.49-.48.91-.87.91-1.45a1.12,1.12,0,0,0-1.08-1.16,1,1,0,0,0-.24,0,1.59,1.59,0,0,0-1.57,1.16l-1.33-.59a3,3,0,0,1,2.9-2,2.52,2.52,0,0,1,2.71,2.31,1.23,1.23,0,0,1,0,.26A3.13,3.13,0,0,1,115.29,481.89Z"/><path class="cls-8" d="M165.93,474.59a8.2,8.2,0,1,0,8.19,8.19A8.2,8.2,0,0,0,165.93,474.59Zm-.2,12.48a.9.9,0,1,1,.91-.9h0A.91.91,0,0,1,165.73,487.07Zm1.56-4.18a2.18,2.18,0,0,0-.86,1.53H165a3.35,3.35,0,0,1,1.37-2.35c.49-.48.91-.87.91-1.45a1.12,1.12,0,0,0-1.08-1.16,1,1,0,0,0-.24,0,1.59,1.59,0,0,0-1.57,1.16l-1.33-.59a3,3,0,0,1,2.9-2,2.52,2.52,0,0,1,2.71,2.31,1.23,1.23,0,0,1,0,.26A3.13,3.13,0,0,1,167.29,482.89Z"/><path class="cls-8" d="M108.93,383.59a8.2,8.2,0,1,0,8.19,8.19A8.2,8.2,0,0,0,108.93,383.59Zm-.2,12.48a.9.9,0,1,1,.91-.9h0A.91.91,0,0,1,108.73,396.07Zm1.56-4.18a2.18,2.18,0,0,0-.86,1.53H108a3.35,3.35,0,0,1,1.37-2.35c.49-.48.91-.87.91-1.45a1.12,1.12,0,0,0-1.08-1.16,1,1,0,0,0-.24,0,1.59,1.59,0,0,0-1.57,1.16l-1.33-.59a3,3,0,0,1,2.9-2,2.52,2.52,0,0,1,2.71,2.31,1.23,1.23,0,0,1,0,.26A3.13,3.13,0,0,1,110.29,391.89Z"/><path class="cls-8" d="M147.93,343.59a8.2,8.2,0,1,0,8.19,8.19A8.2,8.2,0,0,0,147.93,343.59Zm-.2,12.48a.9.9,0,1,1,.91-.9h0A.91.91,0,0,1,147.73,356.07Zm1.56-4.18a2.18,2.18,0,0,0-.86,1.53H147a3.35,3.35,0,0,1,1.37-2.35c.49-.48.91-.87.91-1.45a1.12,1.12,0,0,0-1.08-1.16,1,1,0,0,0-.24,0,1.59,1.59,0,0,0-1.57,1.16l-1.33-.59a3,3,0,0,1,2.9-2,2.52,2.52,0,0,1,2.71,2.31,1.23,1.23,0,0,1,0,.26A3.13,3.13,0,0,1,149.29,351.89Z"/><path class="cls-8" d="M198.93,372.59a8.2,8.2,0,1,0,8.19,8.19A8.2,8.2,0,0,0,198.93,372.59Zm-.2,12.48a.9.9,0,1,1,.91-.9h0A.91.91,0,0,1,198.73,385.07Zm1.56-4.18a2.18,2.18,0,0,0-.86,1.53H198a3.35,3.35,0,0,1,1.37-2.35c.49-.48.91-.87.91-1.45a1.12,1.12,0,0,0-1.08-1.16,1,1,0,0,0-.24,0,1.59,1.59,0,0,0-1.57,1.16l-1.33-.59a3,3,0,0,1,2.9-2,2.52,2.52,0,0,1,2.71,2.31,1.23,1.23,0,0,1,0,.26A3.13,3.13,0,0,1,200.29,380.89Z"/><path class="cls-8" d="M172.93,405.59a8.2,8.2,0,1,0,8.19,8.19A8.2,8.2,0,0,0,172.93,405.59Zm-.2,12.48a.9.9,0,1,1,.91-.9h0A.91.91,0,0,1,172.73,418.07Zm1.56-4.18a2.18,2.18,0,0,0-.86,1.53H172a3.35,3.35,0,0,1,1.37-2.35c.49-.48.91-.87.91-1.45a1.12,1.12,0,0,0-1.08-1.16,1,1,0,0,0-.24,0,1.59,1.59,0,0,0-1.57,1.16l-1.33-.59a3,3,0,0,1,2.9-2,2.52,2.52,0,0,1,2.71,2.31,1.23,1.23,0,0,1,0,.26A3.13,3.13,0,0,1,174.29,413.89Z"/><path class="cls-8" d="M219.93,474.59a8.2,8.2,0,1,0,8.19,8.19A8.2,8.2,0,0,0,219.93,474.59Zm-.2,12.48a.9.9,0,1,1,.91-.9h0A.91.91,0,0,1,219.73,487.07Zm1.56-4.18a2.18,2.18,0,0,0-.86,1.53H219a3.35,3.35,0,0,1,1.37-2.35c.49-.48.91-.87.91-1.45a1.12,1.12,0,0,0-1.08-1.16,1,1,0,0,0-.24,0,1.59,1.59,0,0,0-1.57,1.16l-1.33-.59a3,3,0,0,1,2.9-2,2.52,2.52,0,0,1,2.71,2.31,1.23,1.23,0,0,1,0,.26A3.13,3.13,0,0,1,221.29,482.89Z"/><path class="cls-8" d="M220.93,343.59a8.2,8.2,0,1,0,8.19,8.19A8.2,8.2,0,0,0,220.93,343.59Zm-.2,12.48a.9.9,0,1,1,.91-.9h0A.91.91,0,0,1,220.73,356.07Zm1.56-4.18a2.18,2.18,0,0,0-.86,1.53H220a3.35,3.35,0,0,1,1.37-2.35c.49-.48.91-.87.91-1.45a1.12,1.12,0,0,0-1.08-1.16,1,1,0,0,0-.24,0,1.59,1.59,0,0,0-1.57,1.16l-1.33-.59a3,3,0,0,1,2.9-2,2.52,2.52,0,0,1,2.71,2.31,1.23,1.23,0,0,1,0,.26A3.13,3.13,0,0,1,222.29,351.89Z"/><path class="cls-8" d="M234.93,385.59a8.2,8.2,0,1,0,8.19,8.19A8.2,8.2,0,0,0,234.93,385.59Zm-.2,12.48a.9.9,0,1,1,.91-.9h0A.91.91,0,0,1,234.73,398.07Zm1.56-4.18a2.18,2.18,0,0,0-.86,1.53H234a3.35,3.35,0,0,1,1.37-2.35c.49-.48.91-.87.91-1.45a1.12,1.12,0,0,0-1.08-1.16,1,1,0,0,0-.24,0,1.59,1.59,0,0,0-1.57,1.16l-1.33-.59a3,3,0,0,1,2.9-2,2.52,2.52,0,0,1,2.71,2.31,1.23,1.23,0,0,1,0,.26A3.13,3.13,0,0,1,236.29,393.89Z"/><path class="cls-8" d="M255.93,403.59a8.2,8.2,0,1,0,8.19,8.19A8.2,8.2,0,0,0,255.93,403.59Zm-.2,12.48a.9.9,0,1,1,.91-.9h0A.91.91,0,0,1,255.73,416.07Zm1.56-4.18a2.18,2.18,0,0,0-.86,1.53H255a3.35,3.35,0,0,1,1.37-2.35c.49-.48.91-.87.91-1.45a1.12,1.12,0,0,0-1.08-1.16,1,1,0,0,0-.24,0,1.59,1.59,0,0,0-1.57,1.16l-1.33-.59a3,3,0,0,1,2.9-2,2.52,2.52,0,0,1,2.71,2.31,1.23,1.23,0,0,1,0,.26A3.13,3.13,0,0,1,257.29,411.89Z"/><path class="cls-8" d="M211.93,396.59a8.2,8.2,0,1,0,8.19,8.19A8.2,8.2,0,0,0,211.93,396.59Zm-.2,12.48a.9.9,0,1,1,.91-.9h0A.91.91,0,0,1,211.73,409.07Zm1.56-4.18a2.18,2.18,0,0,0-.86,1.53H211a3.35,3.35,0,0,1,1.37-2.35c.49-.48.91-.87.91-1.45a1.12,1.12,0,0,0-1.08-1.16,1,1,0,0,0-.24,0,1.59,1.59,0,0,0-1.57,1.16l-1.33-.59a3,3,0,0,1,2.9-2,2.52,2.52,0,0,1,2.71,2.31,1.23,1.23,0,0,1,0,.26A3.13,3.13,0,0,1,213.29,404.89Z"/><text class="cls-6" transform="translate(118.95 528.92)">dados sem labels</text><rect class="cls-1" x="575.66" y="78.75" width="197" height="164" rx="14.06"/><circle class="cls-9" cx="608.16" cy="140.08" r="12"/><circle class="cls-9" cx="608.16" cy="180.08" r="12"/><circle class="cls-9" cx="740.16" cy="160.08" r="12"/><circle class="cls-9" cx="674.16" cy="100.08" r="12"/><circle class="cls-9" cx="674.16" cy="140.08" r="12"/><circle class="cls-9" cx="674.16" cy="180.08" r="12"/><circle class="cls-9" cx="674.16" cy="220.08" r="12"/><line class="cls-8" x1="620.16" y1="140.08" x2="662.16" y2="100.08"/><line class="cls-8" x1="620.16" y1="139.75" x2="662.16" y2="139.75"/><line class="cls-8" x1="620.16" y1="179.75" x2="662.16" y2="219.75"/><line class="cls-8" x1="620.16" y1="139.75" x2="662.16" y2="179.75"/><line class="cls-8" x1="620.16" y1="179.75" x2="662.16" y2="179.75"/><line class="cls-8" x1="620.16" y1="139.75" x2="662.16" y2="219.75"/><line class="cls-8" x1="620.16" y1="179.75" x2="662.16" y2="99.75"/><line class="cls-8" x1="686.16" y1="219.75" x2="728.16" y2="159.75"/><line class="cls-8" x1="620.16" y1="179.75" x2="662.16" y2="139.75"/><line class="cls-8" x1="686.16" y1="99.75" x2="728.16" y2="159.75"/><line class="cls-8" x1="686.16" y1="179.75" x2="728.16" y2="159.75"/><line class="cls-8" x1="686.16" y1="139.75" x2="728.16" y2="159.75"/><text class="cls-6" transform="translate(623.95 61.53)">classificador</text><text class="cls-6" transform="translate(828.08 528.92)">pseudo labels</text><rect class="cls-1" x="786.49" y="336.42" width="197" height="164" rx="14.06"/><path class="cls-10" d="M818.55,360.59a8.2,8.2,0,1,0,8.19,8.19A8.2,8.2,0,0,0,818.55,360.59Zm-.2,12.48a.9.9,0,1,1,.91-.9h0A.91.91,0,0,1,818.35,373.07Zm1.56-4.18a2.18,2.18,0,0,0-.86,1.53h-1.46a3.31,3.31,0,0,1,1.37-2.35c.49-.48.91-.87.91-1.45a1.12,1.12,0,0,0-1.08-1.16,1,1,0,0,0-.24,0,1.61,1.61,0,0,0-1.58,1.16l-1.32-.59a3,3,0,0,1,2.9-2,2.52,2.52,0,0,1,2.71,2.31,1.23,1.23,0,0,1,0,.26A3.13,3.13,0,0,1,819.91,368.89Z"/><path class="cls-10" d="M815.55,418.59a8.2,8.2,0,1,0,8.19,8.19A8.2,8.2,0,0,0,815.55,418.59Zm-.2,12.48a.9.9,0,1,1,.91-.9h0A.91.91,0,0,1,815.35,431.07Zm1.56-4.18a2.18,2.18,0,0,0-.86,1.53h-1.46a3.31,3.31,0,0,1,1.37-2.35c.49-.48.91-.87.91-1.45a1.12,1.12,0,0,0-1.08-1.16,1,1,0,0,0-.24,0,1.61,1.61,0,0,0-1.58,1.16l-1.32-.59a3,3,0,0,1,2.9-2,2.52,2.52,0,0,1,2.71,2.31,1.23,1.23,0,0,1,0,.26A3.13,3.13,0,0,1,816.91,426.89Z"/><path class="cls-10" d="M878.55,422.59a8.2,8.2,0,1,0,8.19,8.19A8.2,8.2,0,0,0,878.55,422.59Zm-.2,12.48a.9.9,0,1,1,.91-.9h0A.91.91,0,0,1,878.35,435.07Zm1.56-4.18a2.18,2.18,0,0,0-.86,1.53h-1.46a3.31,3.31,0,0,1,1.37-2.35c.49-.48.91-.87.91-1.45a1.12,1.12,0,0,0-1.08-1.16,1,1,0,0,0-.24,0,1.61,1.61,0,0,0-1.58,1.16l-1.32-.59a3,3,0,0,1,2.9-2,2.52,2.52,0,0,1,2.71,2.31,1.23,1.23,0,0,1,0,.26A3.13,3.13,0,0,1,879.91,430.89Z"/><path class="cls-10" d="M926.55,416.59a8.2,8.2,0,1,0,8.19,8.19A8.2,8.2,0,0,0,926.55,416.59Zm-.2,12.48a.9.9,0,1,1,.91-.9h0A.91.91,0,0,1,926.35,429.07Zm1.56-4.18a2.18,2.18,0,0,0-.86,1.53h-1.46a3.31,3.31,0,0,1,1.37-2.35c.49-.48.91-.87.91-1.45a1.12,1.12,0,0,0-1.08-1.16,1,1,0,0,0-.24,0,1.61,1.61,0,0,0-1.58,1.16l-1.32-.59a3,3,0,0,1,2.9-2,2.52,2.52,0,0,1,2.71,2.31,1.23,1.23,0,0,1,0,.26A3.13,3.13,0,0,1,927.91,424.89Z"/><path class="cls-10" d="M957.55,378.59a8.2,8.2,0,1,0,8.19,8.19A8.2,8.2,0,0,0,957.55,378.59Zm-.2,12.48a.9.9,0,1,1,.91-.9h0A.91.91,0,0,1,957.35,391.07Zm1.56-4.18a2.18,2.18,0,0,0-.86,1.53h-1.46a3.31,3.31,0,0,1,1.37-2.35c.49-.48.91-.87.91-1.45a1.12,1.12,0,0,0-1.08-1.16,1,1,0,0,0-.24,0,1.61,1.61,0,0,0-1.58,1.16l-1.32-.59a3,3,0,0,1,2.9-2,2.52,2.52,0,0,1,2.71,2.31,1.23,1.23,0,0,1,0,.26A3.13,3.13,0,0,1,958.91,386.89Z"/><path class="cls-10" d="M886.55,348.59a8.2,8.2,0,1,0,8.19,8.19A8.2,8.2,0,0,0,886.55,348.59Zm-.2,12.48a.9.9,0,1,1,.91-.9h0A.91.91,0,0,1,886.35,361.07Zm1.56-4.18a2.18,2.18,0,0,0-.86,1.53h-1.46a3.31,3.31,0,0,1,1.37-2.35c.49-.48.91-.87.91-1.45a1.12,1.12,0,0,0-1.08-1.16,1,1,0,0,0-.24,0,1.61,1.61,0,0,0-1.58,1.16l-1.32-.59a3,3,0,0,1,2.9-2,2.52,2.52,0,0,1,2.71,2.31,1.23,1.23,0,0,1,0,.26A3.13,3.13,0,0,1,887.91,356.89Z"/><path class="cls-10" d="M957.55,426.59a8.2,8.2,0,1,0,8.19,8.19A8.2,8.2,0,0,0,957.55,426.59Zm-.2,12.48a.9.9,0,1,1,.91-.9h0A.91.91,0,0,1,957.35,439.07Zm1.56-4.18a2.18,2.18,0,0,0-.86,1.53h-1.46a3.31,3.31,0,0,1,1.37-2.35c.49-.48.91-.87.91-1.45a1.12,1.12,0,0,0-1.08-1.16,1,1,0,0,0-.24,0,1.61,1.61,0,0,0-1.58,1.16l-1.32-.59a3,3,0,0,1,2.9-2,2.52,2.52,0,0,1,2.71,2.31,1.23,1.23,0,0,1,0,.26A3.13,3.13,0,0,1,958.91,434.89Z"/><path class="cls-10" d="M925.55,448.59a8.2,8.2,0,1,0,8.19,8.19A8.2,8.2,0,0,0,925.55,448.59Zm-.2,12.48a.9.9,0,1,1,.91-.9h0A.91.91,0,0,1,925.35,461.07Zm1.56-4.18a2.18,2.18,0,0,0-.86,1.53h-1.46a3.31,3.31,0,0,1,1.37-2.35c.49-.48.91-.87.91-1.45a1.12,1.12,0,0,0-1.08-1.16,1,1,0,0,0-.24,0,1.61,1.61,0,0,0-1.58,1.16l-1.32-.59a3,3,0,0,1,2.9-2,2.52,2.52,0,0,1,2.71,2.31,1.23,1.23,0,0,1,0,.26A3.13,3.13,0,0,1,926.91,456.89Z"/><path class="cls-10" d="M860.55,443.59a8.2,8.2,0,1,0,8.19,8.19A8.2,8.2,0,0,0,860.55,443.59Zm-.2,12.48a.9.9,0,1,1,.91-.9h0A.91.91,0,0,1,860.35,456.07Zm1.56-4.18a2.18,2.18,0,0,0-.86,1.53h-1.46a3.31,3.31,0,0,1,1.37-2.35c.49-.48.91-.87.91-1.45a1.12,1.12,0,0,0-1.08-1.16,1,1,0,0,0-.24,0,1.61,1.61,0,0,0-1.58,1.16l-1.32-.59a3,3,0,0,1,2.9-2,2.52,2.52,0,0,1,2.71,2.31,1.23,1.23,0,0,1,0,.26A3.13,3.13,0,0,1,861.91,451.89Z"/><path class="cls-10" d="M836.55,434.59a8.2,8.2,0,1,0,8.19,8.19A8.2,8.2,0,0,0,836.55,434.59Zm-.2,12.48a.9.9,0,1,1,.91-.9h0A.91.91,0,0,1,836.35,447.07Zm1.56-4.18a2.18,2.18,0,0,0-.86,1.53h-1.46a3.31,3.31,0,0,1,1.37-2.35c.49-.48.91-.87.91-1.45a1.12,1.12,0,0,0-1.08-1.16,1,1,0,0,0-.24,0,1.61,1.61,0,0,0-1.58,1.16l-1.32-.59a3,3,0,0,1,2.9-2,2.52,2.52,0,0,1,2.71,2.31,1.23,1.23,0,0,1,0,.26A3.13,3.13,0,0,1,837.91,442.89Z"/><path class="cls-10" d="M809.55,473.59a8.2,8.2,0,1,0,8.19,8.19A8.2,8.2,0,0,0,809.55,473.59Zm-.2,12.48a.9.9,0,1,1,.91-.9h0A.91.91,0,0,1,809.35,486.07Zm1.56-4.18a2.18,2.18,0,0,0-.86,1.53h-1.46a3.31,3.31,0,0,1,1.37-2.35c.49-.48.91-.87.91-1.45a1.12,1.12,0,0,0-1.08-1.16,1,1,0,0,0-.24,0,1.61,1.61,0,0,0-1.58,1.16l-1.32-.59a3,3,0,0,1,2.9-2,2.52,2.52,0,0,1,2.71,2.31,1.23,1.23,0,0,1,0,.26A3.13,3.13,0,0,1,810.91,481.89Z"/><path class="cls-10" d="M861.55,474.59a8.2,8.2,0,1,0,8.19,8.19A8.2,8.2,0,0,0,861.55,474.59Zm-.2,12.48a.9.9,0,1,1,.91-.9h0A.91.91,0,0,1,861.35,487.07Zm1.56-4.18a2.18,2.18,0,0,0-.86,1.53h-1.46a3.31,3.31,0,0,1,1.37-2.35c.49-.48.91-.87.91-1.45a1.12,1.12,0,0,0-1.08-1.16,1,1,0,0,0-.24,0,1.61,1.61,0,0,0-1.58,1.16l-1.32-.59a3,3,0,0,1,2.9-2,2.52,2.52,0,0,1,2.71,2.31,1.23,1.23,0,0,1,0,.26A3.13,3.13,0,0,1,862.91,482.89Z"/><path class="cls-10" d="M804.55,383.59a8.2,8.2,0,1,0,8.19,8.19A8.2,8.2,0,0,0,804.55,383.59Zm-.2,12.48a.9.9,0,1,1,.91-.9h0A.91.91,0,0,1,804.35,396.07Zm1.56-4.18a2.18,2.18,0,0,0-.86,1.53h-1.46a3.31,3.31,0,0,1,1.37-2.35c.49-.48.91-.87.91-1.45a1.12,1.12,0,0,0-1.08-1.16,1,1,0,0,0-.24,0,1.61,1.61,0,0,0-1.58,1.16l-1.32-.59a3,3,0,0,1,2.9-2,2.52,2.52,0,0,1,2.71,2.31,1.23,1.23,0,0,1,0,.26A3.13,3.13,0,0,1,805.91,391.89Z"/><path class="cls-10" d="M843.55,343.59a8.2,8.2,0,1,0,8.19,8.19A8.2,8.2,0,0,0,843.55,343.59Zm-.2,12.48a.9.9,0,1,1,.91-.9h0A.91.91,0,0,1,843.35,356.07Zm1.56-4.18a2.18,2.18,0,0,0-.86,1.53h-1.46a3.31,3.31,0,0,1,1.37-2.35c.49-.48.91-.87.91-1.45a1.12,1.12,0,0,0-1.08-1.16,1,1,0,0,0-.24,0,1.61,1.61,0,0,0-1.58,1.16l-1.32-.59a3,3,0,0,1,2.9-2,2.52,2.52,0,0,1,2.71,2.31,1.23,1.23,0,0,1,0,.26A3.13,3.13,0,0,1,844.91,351.89Z"/><path class="cls-10" d="M894.55,372.59a8.2,8.2,0,1,0,8.19,8.19A8.2,8.2,0,0,0,894.55,372.59Zm-.2,12.48a.9.9,0,1,1,.91-.9h0A.91.91,0,0,1,894.35,385.07Zm1.56-4.18a2.18,2.18,0,0,0-.86,1.53h-1.46a3.31,3.31,0,0,1,1.37-2.35c.49-.48.91-.87.91-1.45a1.12,1.12,0,0,0-1.08-1.16,1,1,0,0,0-.24,0,1.61,1.61,0,0,0-1.58,1.16l-1.32-.59a3,3,0,0,1,2.9-2,2.52,2.52,0,0,1,2.71,2.31,1.23,1.23,0,0,1,0,.26A3.13,3.13,0,0,1,895.91,380.89Z"/><path class="cls-10" d="M868.55,405.59a8.2,8.2,0,1,0,8.19,8.19A8.2,8.2,0,0,0,868.55,405.59Zm-.2,12.48a.9.9,0,1,1,.91-.9h0A.91.91,0,0,1,868.35,418.07Zm1.56-4.18a2.18,2.18,0,0,0-.86,1.53h-1.46a3.31,3.31,0,0,1,1.37-2.35c.49-.48.91-.87.91-1.45a1.12,1.12,0,0,0-1.08-1.16,1,1,0,0,0-.24,0,1.61,1.61,0,0,0-1.58,1.16l-1.32-.59a3,3,0,0,1,2.9-2,2.52,2.52,0,0,1,2.71,2.31,1.23,1.23,0,0,1,0,.26A3.13,3.13,0,0,1,869.91,413.89Z"/><path class="cls-10" d="M915.55,474.59a8.2,8.2,0,1,0,8.19,8.19A8.2,8.2,0,0,0,915.55,474.59Zm-.2,12.48a.9.9,0,1,1,.91-.9h0A.91.91,0,0,1,915.35,487.07Zm1.56-4.18a2.18,2.18,0,0,0-.86,1.53h-1.46a3.31,3.31,0,0,1,1.37-2.35c.49-.48.91-.87.91-1.45a1.12,1.12,0,0,0-1.08-1.16,1,1,0,0,0-.24,0,1.61,1.61,0,0,0-1.58,1.16l-1.32-.59a3,3,0,0,1,2.9-2,2.52,2.52,0,0,1,2.71,2.31,1.23,1.23,0,0,1,0,.26A3.13,3.13,0,0,1,916.91,482.89Z"/><path class="cls-10" d="M916.55,343.59a8.2,8.2,0,1,0,8.19,8.19A8.2,8.2,0,0,0,916.55,343.59Zm-.2,12.48a.9.9,0,1,1,.91-.9h0A.91.91,0,0,1,916.35,356.07Zm1.56-4.18a2.18,2.18,0,0,0-.86,1.53h-1.46a3.31,3.31,0,0,1,1.37-2.35c.49-.48.91-.87.91-1.45a1.12,1.12,0,0,0-1.08-1.16,1,1,0,0,0-.24,0,1.61,1.61,0,0,0-1.58,1.16l-1.32-.59a3,3,0,0,1,2.9-2,2.52,2.52,0,0,1,2.71,2.31,1.23,1.23,0,0,1,0,.26A3.13,3.13,0,0,1,917.91,351.89Z"/><path class="cls-10" d="M930.55,385.59a8.2,8.2,0,1,0,8.19,8.19A8.2,8.2,0,0,0,930.55,385.59Zm-.2,12.48a.9.9,0,1,1,.91-.9h0A.91.91,0,0,1,930.35,398.07Zm1.56-4.18a2.18,2.18,0,0,0-.86,1.53h-1.46a3.31,3.31,0,0,1,1.37-2.35c.49-.48.91-.87.91-1.45a1.12,1.12,0,0,0-1.08-1.16,1,1,0,0,0-.24,0,1.61,1.61,0,0,0-1.58,1.16l-1.32-.59a3,3,0,0,1,2.9-2,2.52,2.52,0,0,1,2.71,2.31,1.23,1.23,0,0,1,0,.26A3.13,3.13,0,0,1,931.91,393.89Z"/><path class="cls-10" d="M907.55,396.59a8.2,8.2,0,1,0,8.19,8.19A8.2,8.2,0,0,0,907.55,396.59Zm-.2,12.48a.9.9,0,1,1,.91-.9h0A.91.91,0,0,1,907.35,409.07Zm1.56-4.18a2.18,2.18,0,0,0-.86,1.53h-1.46a3.31,3.31,0,0,1,1.37-2.35c.49-.48.91-.87.91-1.45a1.12,1.12,0,0,0-1.08-1.16,1,1,0,0,0-.24,0,1.61,1.61,0,0,0-1.58,1.16l-1.32-.59a3,3,0,0,1,2.9-2,2.52,2.52,0,0,1,2.71,2.31,1.23,1.23,0,0,1,0,.26A3.13,3.13,0,0,1,908.91,404.89Z"/><path class="cls-2" d="M828.82,391.34l.24,4.15,1.3-.8c-.4-2.9.53-4.69,2.82-5.52,1.51-.55,2.86,0,3.87,1.62s1.07,3.31,0,4.32a4.85,4.85,0,0,1-6.15.13,2.67,2.67,0,0,0-1.49,3c.13,1.28.29,2.56.44,3.9l-1,.13c-.86.12-1.24-.11-1.13-1.12a17.87,17.87,0,0,0,0-3.43,3.39,3.39,0,0,0-1.55-2.79c-2.35,1.41-4,1.41-5.6,0a3.9,3.9,0,0,1-.08-5.56,3,3,0,0,1,2.14-.57,5.21,5.21,0,0,1,3.84,2.57,3.37,3.37,0,0,1,.32,2.07c-.16,1.21-.24,1.2,1.26,1.93,0-1.39.07-2.64.07-3.9,0-.12-.25-.25-.4-.35a6.27,6.27,0,0,1-2.9-5.32c-.14-1.81,1.36-3.11,3.65-3.43a3.39,3.39,0,0,1,3.86,2.69A5.45,5.45,0,0,1,828.82,391.34Z"/><path class="cls-2" d="M891.82,462.34l.24,4.15,1.3-.8c-.4-2.9.53-4.69,2.82-5.52,1.51-.55,2.86,0,3.87,1.62s1.07,3.31,0,4.32a4.85,4.85,0,0,1-6.15.13,2.67,2.67,0,0,0-1.49,3c.13,1.28.29,2.56.44,3.9l-1,.13c-.86.12-1.24-.11-1.13-1.12a17.87,17.87,0,0,0,0-3.43,3.39,3.39,0,0,0-1.55-2.79c-2.35,1.41-4,1.41-5.6,0a3.9,3.9,0,0,1-.08-5.56,3,3,0,0,1,2.14-.57,5.21,5.21,0,0,1,3.84,2.57,3.37,3.37,0,0,1,.32,2.07c-.16,1.21-.24,1.2,1.26,1.93,0-1.39.07-2.64.07-3.9,0-.12-.25-.25-.4-.35a6.27,6.27,0,0,1-2.9-5.32c-.14-1.81,1.36-3.11,3.65-3.43a3.39,3.39,0,0,1,3.86,2.69A5.45,5.45,0,0,1,891.82,462.34Z"/><path class="cls-2" d="M947.82,476.34l.24,4.15,1.3-.8c-.4-2.9.53-4.69,2.82-5.52,1.51-.55,2.86,0,3.87,1.62s1.07,3.31,0,4.32a4.85,4.85,0,0,1-6.15.13,2.67,2.67,0,0,0-1.49,3c.13,1.28.29,2.56.44,3.9l-1,.13c-.86.12-1.24-.11-1.13-1.12a17.87,17.87,0,0,0,0-3.43,3.39,3.39,0,0,0-1.55-2.79c-2.35,1.41-4,1.41-5.6,0a3.9,3.9,0,0,1-.08-5.56,3,3,0,0,1,2.14-.57,5.21,5.21,0,0,1,3.84,2.57,3.37,3.37,0,0,1,.32,2.07c-.16,1.21-.24,1.2,1.26,1.93,0-1.39.07-2.64.07-3.9,0-.12-.25-.25-.4-.35a6.27,6.27,0,0,1-2.9-5.32c-.14-1.81,1.36-3.11,3.65-3.43a3.39,3.39,0,0,1,3.86,2.69A5.45,5.45,0,0,1,947.82,476.34Z"/><path class="cls-3" d="M904.49,427.5c2.27.15,3,1,2.84,3.2a1.16,1.16,0,0,0,.48.85,1.75,1.75,0,0,1,1,2,1.14,1.14,0,0,0,.08.75c1,1.83,1,2.37-.61,3.65a3.23,3.23,0,0,1,.34,1.05c0,.44-.08,1.19-.32,1.27-1.24.42-1.63,1.73-2.6,2.34a6,6,0,0,1-2.15.3l.23,2.51h-2.29V443a7.11,7.11,0,0,1-2.28-.79,15.22,15.22,0,0,0-2.44-2.09,1.46,1.46,0,0,1-.53-1.21,6.69,6.69,0,0,0-.17-2.56,7.36,7.36,0,0,0-.7-2.14c-.5-.78,0-1.57.57-2.18a7,7,0,0,1,1-.71,2.53,2.53,0,0,1,.89-2.92c.65-.57,1.21-1.35,1.94-2C901.52,424.8,903.65,425.18,904.49,427.5Z"/><path class="cls-3" d="M846.49,409.5c2.27.15,3,1,2.84,3.2a1.16,1.16,0,0,0,.48.85,1.75,1.75,0,0,1,1,2,1.14,1.14,0,0,0,.08.75c1,1.83,1,2.37-.61,3.65a3.23,3.23,0,0,1,.34,1.05c0,.44-.08,1.19-.32,1.27-1.24.42-1.63,1.73-2.6,2.34a6,6,0,0,1-2.15.3l.23,2.51h-2.29V425a7.11,7.11,0,0,1-2.28-.79,15.22,15.22,0,0,0-2.44-2.09,1.46,1.46,0,0,1-.53-1.21,6.69,6.69,0,0,0-.17-2.56,7.36,7.36,0,0,0-.7-2.14c-.5-.78,0-1.57.57-2.18a7,7,0,0,1,1-.71,2.53,2.53,0,0,1,.89-2.92c.65-.57,1.21-1.35,1.94-2C843.52,406.8,845.65,407.18,846.49,409.5Z"/><path class="cls-3" d="M921.49,365.5c2.27.15,3,1,2.84,3.2a1.16,1.16,0,0,0,.48.85,1.75,1.75,0,0,1,1,2,1.14,1.14,0,0,0,.08.75c1,1.83,1,2.37-.61,3.65a3.23,3.23,0,0,1,.34,1.05c0,.44-.08,1.19-.32,1.27-1.24.42-1.63,1.73-2.6,2.34a6,6,0,0,1-2.15.3l.23,2.51h-2.29V381a7.11,7.11,0,0,1-2.28-.79,15.22,15.22,0,0,0-2.44-2.09,1.46,1.46,0,0,1-.53-1.21,6.69,6.69,0,0,0-.17-2.56,7.36,7.36,0,0,0-.7-2.14c-.5-.78,0-1.57.57-2.18a7,7,0,0,1,1-.71,2.53,2.53,0,0,1,.89-2.92c.65-.57,1.21-1.35,1.94-2C918.52,362.8,920.65,363.18,921.49,365.5Z"/><path class="cls-4" d="M949.94,414.08c-2.35,1.46-3.44,1.16-4.3-1.14-.22-.6-.88-1.2-.8-1.73a15.5,15.5,0,0,1,1.21-4.53c.59-1.18,2.24-1.83,3.06-3.1a.57.57,0,0,1,.35-.16,4.67,4.67,0,0,0,3.26-1.65,1.32,1.32,0,0,1,1.2-.29c1.09.77,2.31.59,3.49.75a1.44,1.44,0,0,1,.78.47,17,17,0,0,1,2.7,3.22,11.06,11.06,0,0,1,1.45,4.64c0,1.2-.45,2.48-.39,3.78a1.7,1.7,0,0,1-.9,1.18,3.81,3.81,0,0,1-5-1.7c-4.52.6-6.17,3.26-4.7,7.6h-2.5c-.14-1.81-.26-3.57.74-5.25A6,6,0,0,0,949.94,414.08Zm3-1.83-.9,1.85.22.2,2.24-1.62Z"/><path class="cls-4" d="M853.9,373.43c-2.35,1.46-3.44,1.16-4.3-1.14-.22-.6-.88-1.2-.8-1.73A15.5,15.5,0,0,1,850,366c.59-1.18,2.24-1.83,3.06-3.1a.57.57,0,0,1,.35-.16,4.67,4.67,0,0,0,3.26-1.65,1.32,1.32,0,0,1,1.2-.29c1.09.77,2.31.59,3.49.75a1.44,1.44,0,0,1,.78.47,17,17,0,0,1,2.7,3.22,11.06,11.06,0,0,1,1.45,4.64c0,1.2-.45,2.48-.39,3.78a1.7,1.7,0,0,1-.9,1.18,3.81,3.81,0,0,1-5-1.7c-4.52.6-6.17,3.26-4.7,7.6h-2.5c-.14-1.81-.26-3.57.74-5.25A6,6,0,0,0,853.9,373.43Zm3-1.83-.9,1.85.22.2,2.24-1.62Z"/><path class="cls-4" d="M807.94,453.08c-2.35,1.46-3.44,1.16-4.3-1.14-.22-.6-.88-1.2-.8-1.73a15.5,15.5,0,0,1,1.21-4.53c.59-1.18,2.24-1.83,3.06-3.1a.57.57,0,0,1,.35-.16,4.67,4.67,0,0,0,3.26-1.65,1.32,1.32,0,0,1,1.2-.29c1.09.77,2.31.59,3.49.75a1.44,1.44,0,0,1,.78.47,17,17,0,0,1,2.7,3.22,11.06,11.06,0,0,1,1.45,4.64c0,1.2-.45,2.48-.39,3.78a1.7,1.7,0,0,1-.9,1.18,3.81,3.81,0,0,1-5-1.7c-4.52.6-6.17,3.26-4.7,7.6h-2.5c-.14-1.81-.26-3.57.74-5.25A6,6,0,0,0,807.94,453.08Zm3-1.83-.9,1.85.22.2,2.24-1.62Z"/><path class="cls-5" d="M870.13,394.63l-2.65-.18c1.31-1.72,2.42-3.19,3.68-4.87l-2.44.18c1.63-2.7,3.11-5.14,4.59-7.57l.45-.07,4.68,7.67-2.48-.24,3.66,4.86-2.6.25c.85,1.29,1.63,2.45,2.37,3.63a3.06,3.06,0,0,1,.22.95,2.8,2.8,0,0,1-1,0c-.89-.26-1.77-.6-2.65-.92s-1.19,0-1.12.86a5.81,5.81,0,0,0,.09.58c.3,2.57.89,2.27-2.09,2.32-.85,0-1-.35-.87-1.08.1-.53.19-1.08.24-1.62.09-1.19-.12-1.37-1.23-1-.89.28-1.76.64-2.65.92a2.49,2.49,0,0,1-.77,0,1.81,1.81,0,0,1,.07-.85C868.4,397.23,869.21,396,870.13,394.63Z"/><path class="cls-5" d="M833.13,472.63l-2.65-.18c1.31-1.72,2.42-3.19,3.68-4.87l-2.44.18c1.63-2.7,3.11-5.14,4.59-7.57l.45-.07,4.68,7.67-2.48-.24,3.66,4.86-2.6.25c.85,1.29,1.63,2.45,2.37,3.63a3.06,3.06,0,0,1,.22.95,2.8,2.8,0,0,1-1,0c-.89-.26-1.77-.6-2.65-.92s-1.19,0-1.12.86a5.81,5.81,0,0,0,.09.58c.3,2.57.89,2.27-2.09,2.32-.85,0-1-.35-.87-1.08.1-.53.19-1.08.24-1.62.09-1.19-.12-1.37-1.23-1-.89.28-1.76.64-2.65.92a2.49,2.49,0,0,1-.77,0,1.81,1.81,0,0,1,.07-.85C831.4,475.23,832.21,474,833.13,472.63Z"/><path class="cls-5" d="M944.13,364.63l-2.65-.18c1.31-1.72,2.42-3.19,3.68-4.87l-2.44.18c1.63-2.7,3.11-5.14,4.59-7.57l.45-.07,4.68,7.67-2.48-.24,3.66,4.86-2.6.25c.85,1.29,1.63,2.45,2.37,3.63a3.06,3.06,0,0,1,.22.95,2.8,2.8,0,0,1-1,0c-.89-.26-1.77-.6-2.65-.92s-1.19,0-1.12.86a5.81,5.81,0,0,0,.09.58c.3,2.57.89,2.27-2.09,2.32-.85,0-1-.35-.87-1.08.1-.53.19-1.08.24-1.62.09-1.19-.12-1.37-1.23-1-.89.28-1.76.64-2.65.92a2.49,2.49,0,0,1-.77,0,1.81,1.81,0,0,1,.07-.85C942.4,367.23,943.21,366,944.13,364.63Z"/><text class="cls-6" transform="translate(1153.19 528.92)">RL</text><rect class="cls-1" x="1064.66" y="336.42" width="197" height="164" rx="14.06"/><path d="M1161.54,396.79v-1.63c0-3.53,0-7.05,0-10.58a.75.75,0,0,0-.63-.87,8.38,8.38,0,1,1,11-7.13,8.08,8.08,0,0,1-5.56,7.11c-.52.19-.71.4-.7,1,0,3.8,0,7.59,0,11.39,0,.22,0,.43,0,.74h21.75a9,9,0,0,1,9.4,9.39c0,2,0,4,0,6a1,1,0,0,0,.64,1.05c4.89,2.41,7.54,6.37,7.51,11.82s-2.7,9.32-7.56,11.71a.86.86,0,0,0-.58.94c0,2,0,4.07,0,6.1a9,9,0,0,1-9.4,9.4h-48.65a9,9,0,0,1-9.38-9.4c0-2,0-4.07,0-6.1a.9.9,0,0,0-.59-1c-4.87-2.37-7.53-6.29-7.56-11.71s2.63-9.4,7.51-11.81a.94.94,0,0,0,.64-1c0-2.18,0-4.36,0-6.54a9,9,0,0,1,9.09-8.93c5.64,0,11.27,0,16.91,0Zm1.59,52.21h24.47a4.86,4.86,0,0,0,5.13-5.11q0-18.86,0-37.71a4.85,4.85,0,0,0-5.14-5.17h-48.73a4.85,4.85,0,0,0-5.19,5.19v37.56a4.85,4.85,0,0,0,5.21,5.24Zm-3.66-73.27a4.17,4.17,0,1,0,4.28-4.1A4.19,4.19,0,0,0,1159.47,375.73Zm-30,41.93a8.87,8.87,0,0,0-3.87,8.47c.23,2.34,2,5.26,3.87,6Zm67.52,0v14.65a8.83,8.83,0,0,0,0-14.65Z"/><path d="M1178.68,427.74a8.39,8.39,0,1,1,8.31-8.58A8.37,8.37,0,0,1,1178.68,427.74Zm4.08-8.41a4.17,4.17,0,0,0-4.15-4.16,4.19,4.19,0,0,0,0,8.37A4.16,4.16,0,0,0,1182.76,419.33Z"/><path d="M1148.67,427.74a8.39,8.39,0,1,1,8.38-8.34A8.41,8.41,0,0,1,1148.67,427.74Zm0-12.57a4.19,4.19,0,1,0,4.2,4.14A4.19,4.19,0,0,0,1148.67,415.17Z"/><path d="M1163.63,437.64h-9.41a2,2,0,0,1-2.2-2.39,2,2,0,0,1,1.74-1.81,4.35,4.35,0,0,1,.51,0h18.82a2.12,2.12,0,1,1-.13,4.22Z"/><text class="cls-6" transform="translate(398.36 121.68)">t<tspan class="cls-11" x="6.54" y="0">r</tspan><tspan x="12.8" y="0">eino 0</tspan></text><circle class="cls-1" cx="427.79" cy="157" r="22.25"/><text class="cls-6" transform="translate(1102.98 37.83)">n<tspan class="cls-12" x="10.96" y="0">o</tspan><tspan class="cls-11" x="21.67" y="0">v</tspan><tspan x="30.97" y="0">o </tspan><tspan class="cls-7" x="46" y="0">c</tspan><tspan x="54.73" y="0">onju</tspan><tspan class="cls-13" x="92.22" y="0">n</tspan><tspan class="cls-7" x="103.1" y="0">t</tspan><tspan x="109.52" y="0">o</tspan><tspan x="23.01" y="23.7">de t</tspan><tspan class="cls-14" x="54.77" y="23.7">r</tspan><tspan class="cls-15" x="61.03" y="23.7">eino</tspan></text><rect class="cls-1" x="1064.66" y="78.75" width="197" height="164" rx="14.06"/><path class="cls-2" d="M1107,126.67l.24,4.15,1.3-.8c-.4-2.9.53-4.69,2.82-5.52,1.51-.55,2.86,0,3.87,1.62s1.07,3.31,0,4.32a4.85,4.85,0,0,1-6.15.13,2.69,2.69,0,0,0-1.49,3c.13,1.28.29,2.56.44,3.9l-1,.13c-.86.12-1.24-.11-1.13-1.12a17.87,17.87,0,0,0,0-3.43,3.39,3.39,0,0,0-1.55-2.79c-2.35,1.41-4,1.41-5.6,0a3.9,3.9,0,0,1-.08-5.56,3,3,0,0,1,2.14-.57,5.17,5.17,0,0,1,3.84,2.57,3.29,3.29,0,0,1,.32,2.07c-.16,1.21-.24,1.2,1.26,1.93,0-1.39.07-2.64.07-3.9,0-.12-.25-.25-.4-.35a6.3,6.3,0,0,1-2.9-5.32c-.14-1.81,1.36-3.11,3.65-3.43a3.39,3.39,0,0,1,3.86,2.69A5.44,5.44,0,0,1,1107,126.67Z"/><path class="cls-2" d="M1166,213.67l.24,4.15,1.3-.8c-.4-2.9.53-4.69,2.82-5.52,1.51-.55,2.86,0,3.87,1.62s1.07,3.31,0,4.32a4.85,4.85,0,0,1-6.15.13,2.69,2.69,0,0,0-1.49,3c.13,1.28.29,2.56.44,3.9l-1,.13c-.86.12-1.24-.11-1.13-1.12a17.87,17.87,0,0,0,0-3.43,3.39,3.39,0,0,0-1.55-2.79c-2.35,1.41-4,1.41-5.6,0a3.9,3.9,0,0,1-.08-5.56,3,3,0,0,1,2.14-.57,5.17,5.17,0,0,1,3.84,2.57,3.29,3.29,0,0,1,.32,2.07c-.16,1.21-.24,1.2,1.26,1.93,0-1.39.07-2.64.07-3.9,0-.12-.25-.25-.4-.35a6.3,6.3,0,0,1-2.9-5.32c-.14-1.81,1.36-3.11,3.65-3.43a3.39,3.39,0,0,1,3.86,2.69A5.44,5.44,0,0,1,1166,213.67Z"/><path class="cls-2" d="M1226,218.67l.24,4.15,1.3-.8c-.4-2.9.53-4.69,2.82-5.52,1.51-.55,2.86,0,3.87,1.62s1.07,3.31,0,4.32a4.85,4.85,0,0,1-6.15.13,2.69,2.69,0,0,0-1.49,3c.13,1.28.29,2.56.44,3.9l-1,.13c-.86.12-1.24-.11-1.13-1.12a17.87,17.87,0,0,0,0-3.43,3.39,3.39,0,0,0-1.55-2.79c-2.35,1.41-4,1.41-5.6,0a3.9,3.9,0,0,1-.08-5.56,3,3,0,0,1,2.14-.57,5.17,5.17,0,0,1,3.84,2.57,3.29,3.29,0,0,1,.32,2.07c-.16,1.21-.24,1.2,1.26,1.93,0-1.39.07-2.64.07-3.9,0-.12-.25-.25-.4-.35a6.3,6.3,0,0,1-2.9-5.32c-.14-1.81,1.36-3.11,3.65-3.43a3.39,3.39,0,0,1,3.86,2.69A5.44,5.44,0,0,1,1226,218.67Z"/><path class="cls-3" d="M1182.66,169.83c2.27.15,3,1,2.84,3.2a1.16,1.16,0,0,0,.48.85,1.75,1.75,0,0,1,1,2,1.14,1.14,0,0,0,.08.75c1,1.83,1,2.37-.61,3.65a3.23,3.23,0,0,1,.34,1.05c0,.44-.08,1.19-.32,1.27-1.24.42-1.63,1.73-2.6,2.34a6,6,0,0,1-2.15.3l.23,2.51h-2.29v-2.46a7.11,7.11,0,0,1-2.28-.79,15.22,15.22,0,0,0-2.44-2.09,1.46,1.46,0,0,1-.53-1.21,6.69,6.69,0,0,0-.17-2.56,7.36,7.36,0,0,0-.7-2.14c-.5-.78,0-1.57.57-2.18a7,7,0,0,1,1-.71,2.53,2.53,0,0,1,.89-2.92c.65-.57,1.21-1.35,1.94-2C1179.69,167.13,1181.82,167.51,1182.66,169.83Z"/><path class="cls-3" d="M1124.66,151.83c2.27.15,3,1,2.84,3.2a1.16,1.16,0,0,0,.48.85,1.75,1.75,0,0,1,1,2,1.14,1.14,0,0,0,.08.75c1,1.83,1,2.37-.61,3.65a3.23,3.23,0,0,1,.34,1.05c0,.44-.08,1.19-.32,1.27-1.24.42-1.63,1.73-2.6,2.34a6,6,0,0,1-2.15.3l.23,2.51h-2.29v-2.46a7.11,7.11,0,0,1-2.28-.79,15.22,15.22,0,0,0-2.44-2.09,1.46,1.46,0,0,1-.53-1.21,6.69,6.69,0,0,0-.17-2.56,7.36,7.36,0,0,0-.7-2.14c-.5-.78,0-1.57.57-2.18a7,7,0,0,1,1-.71,2.53,2.53,0,0,1,.89-2.92c.65-.57,1.21-1.35,1.94-2C1121.69,149.13,1123.82,149.51,1124.66,151.83Z"/><path class="cls-3" d="M1203.5,115.2c2.27.16,3,1,2.84,3.2a1.16,1.16,0,0,0,.48.85,1.75,1.75,0,0,1,1,2,1.14,1.14,0,0,0,.08.75c1,1.83.95,2.37-.61,3.65a3.23,3.23,0,0,1,.34,1c0,.44-.08,1.19-.32,1.27-1.24.42-1.63,1.73-2.6,2.34a6,6,0,0,1-2.15.3l.23,2.51h-2.29v-2.45a7.11,7.11,0,0,1-2.28-.79,15.81,15.81,0,0,0-2.44-2.1,1.46,1.46,0,0,1-.53-1.21,6.7,6.7,0,0,0-.17-2.56,7.36,7.36,0,0,0-.7-2.14c-.5-.78,0-1.57.57-2.18a7,7,0,0,1,1-.71,2.51,2.51,0,0,1,.89-2.91c.65-.57,1.21-1.35,1.94-2C1200.53,112.5,1202.66,112.89,1203.5,115.2Z"/><path class="cls-4" d="M1228.11,156.41c-2.35,1.46-3.44,1.16-4.3-1.14-.22-.6-.88-1.2-.8-1.73a15.5,15.5,0,0,1,1.21-4.53c.59-1.18,2.24-1.83,3.06-3.1a.57.57,0,0,1,.35-.16,4.67,4.67,0,0,0,3.26-1.65,1.32,1.32,0,0,1,1.2-.29c1.09.77,2.31.59,3.49.75a1.44,1.44,0,0,1,.78.47,17,17,0,0,1,2.7,3.22,11.06,11.06,0,0,1,1.45,4.64c0,1.2-.45,2.48-.39,3.78a1.7,1.7,0,0,1-.9,1.18,3.81,3.81,0,0,1-5-1.7c-4.52.6-6.17,3.26-4.7,7.6H1227c-.14-1.81-.26-3.57.74-5.25A6,6,0,0,0,1228.11,156.41Zm3-1.83-.9,1.85.22.2,2.24-1.62Z"/><path class="cls-4" d="M1132.07,115.76c-2.35,1.46-3.44,1.16-4.3-1.14-.22-.6-.88-1.2-.8-1.73a15.5,15.5,0,0,1,1.21-4.53c.59-1.18,2.24-1.83,3.06-3.1a.57.57,0,0,1,.35-.16,4.67,4.67,0,0,0,3.26-1.65,1.32,1.32,0,0,1,1.2-.29c1.09.77,2.31.59,3.49.75a1.44,1.44,0,0,1,.78.47,17,17,0,0,1,2.7,3.22,11.06,11.06,0,0,1,1.45,4.64c0,1.2-.45,2.48-.39,3.78a1.7,1.7,0,0,1-.9,1.18,3.81,3.81,0,0,1-5-1.7c-4.52.6-6.17,3.26-4.7,7.6H1131c-.14-1.81-.26-3.57.74-5.25A6,6,0,0,0,1132.07,115.76Zm3-1.83-.9,1.85.22.2,2.24-1.62Z"/><path class="cls-4" d="M1087.11,177.79c-2.35,1.46-3.44,1.16-4.3-1.14-.22-.6-.88-1.2-.8-1.73a15.5,15.5,0,0,1,1.21-4.53c.59-1.18,2.24-1.83,3.06-3.1a.57.57,0,0,1,.35-.16,4.67,4.67,0,0,0,3.26-1.65,1.32,1.32,0,0,1,1.2-.29c1.09.77,2.31.59,3.49.75a1.44,1.44,0,0,1,.78.47,17,17,0,0,1,2.7,3.22,11.06,11.06,0,0,1,1.45,4.64c0,1.2-.45,2.48-.39,3.78a1.7,1.7,0,0,1-.9,1.18,3.81,3.81,0,0,1-5-1.7c-4.52.6-6.17,3.26-4.7,7.59H1086c-.14-1.8-.26-3.56.74-5.24A6,6,0,0,0,1087.11,177.79Zm3-1.83-.9,1.85.22.2,2.24-1.62Z"/><path class="cls-5" d="M1148.3,137l-2.65-.18c1.31-1.72,2.42-3.19,3.68-4.87l-2.44.18c1.63-2.7,3.11-5.14,4.59-7.57l.45-.07,4.68,7.67-2.48-.24,3.66,4.86-2.6.25c.85,1.29,1.63,2.45,2.37,3.63a3.12,3.12,0,0,1,.22,1,3.35,3.35,0,0,1-1,0c-.89-.26-1.77-.61-2.65-.92s-1.19,0-1.12.86a5.81,5.81,0,0,0,.09.58c.3,2.57.89,2.27-2.09,2.32-.85,0-1-.35-.87-1.08.1-.54.19-1.08.24-1.63.09-1.19-.12-1.37-1.23-1-.89.29-1.76.64-2.65.92a2,2,0,0,1-.77,0,1.82,1.82,0,0,1,.07-.85C1146.57,139.55,1147.38,138.35,1148.3,137Z"/><path class="cls-5" d="M1111.3,215l-2.65-.18c1.31-1.72,2.42-3.19,3.68-4.87l-2.44.18c1.63-2.7,3.11-5.14,4.59-7.57l.45-.07,4.68,7.67-2.48-.24,3.66,4.86-2.6.25c.85,1.29,1.63,2.45,2.37,3.63a3.12,3.12,0,0,1,.22,1,3.35,3.35,0,0,1-1,0c-.89-.26-1.77-.61-2.65-.92s-1.19,0-1.12.86a5.81,5.81,0,0,0,.09.58c.3,2.57.89,2.27-2.09,2.32-.85,0-1-.35-.87-1.08.1-.54.19-1.08.24-1.63.09-1.19-.12-1.37-1.23-1-.89.29-1.76.64-2.65.92a2,2,0,0,1-.77,0,1.82,1.82,0,0,1,.07-.85C1109.57,217.55,1110.38,216.35,1111.3,215Z"/><path class="cls-5" d="M1222.3,107l-2.65-.18c1.31-1.72,2.42-3.19,3.68-4.87l-2.44.18c1.63-2.7,3.11-5.14,4.59-7.57l.45-.07,4.68,7.67-2.48-.24,3.66,4.86-2.6.25c.85,1.29,1.63,2.45,2.37,3.63a3.12,3.12,0,0,1,.22,1,3.35,3.35,0,0,1-1,0c-.89-.26-1.77-.61-2.65-.92s-1.19,0-1.12.86a5.81,5.81,0,0,0,.09.58c.3,2.57.89,2.27-2.09,2.32-.85,0-1-.35-.87-1.08.1-.54.19-1.08.24-1.63.09-1.19-.12-1.37-1.23-1-.89.29-1.76.64-2.65.92a2,2,0,0,1-.77,0,1.82,1.82,0,0,1,.07-.85C1220.57,109.55,1221.38,108.35,1222.3,107Z"/><path class="cls-2" d="M1117.88,193.07l.24,4.15,1.3-.8c-.4-2.9.53-4.69,2.82-5.52,1.51-.55,2.86,0,3.87,1.62s1.07,3.31,0,4.32a4.83,4.83,0,0,1-6.15.13,2.7,2.7,0,0,0-1.49,3c.13,1.28.29,2.56.44,3.9l-1,.13c-.86.12-1.24-.11-1.13-1.12a17.87,17.87,0,0,0,0-3.43,3.41,3.41,0,0,0-1.55-2.79c-2.35,1.41-4,1.41-5.6,0a3.9,3.9,0,0,1-.08-5.56,3,3,0,0,1,2.14-.57,5.21,5.21,0,0,1,3.84,2.57,3.31,3.31,0,0,1,.32,2.07c-.16,1.21-.24,1.2,1.26,1.93,0-1.39.07-2.64.07-3.9,0-.12-.25-.25-.4-.35a6.27,6.27,0,0,1-2.9-5.32c-.14-1.81,1.36-3.11,3.65-3.43a3.41,3.41,0,0,1,3.86,2.69A5.44,5.44,0,0,1,1117.88,193.07Z"/><path class="cls-2" d="M1206.88,174.07l.24,4.15,1.3-.8c-.4-2.9.53-4.69,2.82-5.52,1.51-.55,2.86,0,3.87,1.62s1.07,3.31,0,4.32a4.83,4.83,0,0,1-6.15.13,2.7,2.7,0,0,0-1.49,3c.13,1.28.29,2.56.44,3.9l-1,.13c-.86.12-1.24-.11-1.13-1.12a17.87,17.87,0,0,0,0-3.43,3.41,3.41,0,0,0-1.55-2.79c-2.35,1.41-4,1.41-5.6,0a3.9,3.9,0,0,1-.08-5.56,3,3,0,0,1,2.14-.57,5.21,5.21,0,0,1,3.84,2.57,3.31,3.31,0,0,1,.32,2.07c-.16,1.21-.24,1.2,1.26,1.93,0-1.39.07-2.64.07-3.9,0-.12-.25-.25-.4-.35a6.27,6.27,0,0,1-2.9-5.32c-.14-1.81,1.36-3.11,3.65-3.43a3.41,3.41,0,0,1,3.86,2.69A5.44,5.44,0,0,1,1206.88,174.07Z"/><path class="cls-3" d="M1153.5,174.2c2.27.16,3,1,2.84,3.2a1.16,1.16,0,0,0,.48.85,1.75,1.75,0,0,1,1,2,1.14,1.14,0,0,0,.08.75c1,1.83.95,2.37-.61,3.65a3.23,3.23,0,0,1,.34,1c0,.44-.08,1.19-.32,1.27-1.24.42-1.63,1.73-2.6,2.34a6,6,0,0,1-2.15.3l.23,2.51h-2.29v-2.45a7.11,7.11,0,0,1-2.28-.79,15.81,15.81,0,0,0-2.44-2.1,1.46,1.46,0,0,1-.53-1.21,6.7,6.7,0,0,0-.17-2.56,7.36,7.36,0,0,0-.7-2.14c-.5-.78,0-1.57.57-2.18a7,7,0,0,1,1-.71,2.51,2.51,0,0,1,.89-2.91c.65-.57,1.21-1.35,1.94-2C1150.53,171.5,1152.66,171.89,1153.5,174.2Z"/><path class="cls-3" d="M1100.05,141.74c2.27.15,3,1,2.84,3.2a1.16,1.16,0,0,0,.48.85,1.75,1.75,0,0,1,1,2,1.14,1.14,0,0,0,.08.75c1,1.83,1,2.37-.61,3.65a3.23,3.23,0,0,1,.34,1.05c0,.44-.08,1.19-.32,1.27-1.24.42-1.63,1.73-2.6,2.34a6,6,0,0,1-2.15.3l.23,2.51h-2.29V157.2a7.11,7.11,0,0,1-2.28-.79,15.22,15.22,0,0,0-2.44-2.09,1.46,1.46,0,0,1-.53-1.21,6.69,6.69,0,0,0-.17-2.56,7.36,7.36,0,0,0-.7-2.14c-.5-.78,0-1.57.57-2.18a7,7,0,0,1,1-.71,2.53,2.53,0,0,1,.89-2.92c.65-.57,1.21-1.35,1.94-2C1097.08,139,1099.21,139.42,1100.05,141.74Z"/><path class="cls-3" d="M1164.5,93.2c2.27.16,3,1,2.84,3.2a1.16,1.16,0,0,0,.48.85,1.75,1.75,0,0,1,1,2,1.14,1.14,0,0,0,.08.75c1,1.83.95,2.37-.61,3.65a3.23,3.23,0,0,1,.34,1c0,.44-.08,1.19-.32,1.27-1.24.42-1.63,1.73-2.6,2.34a6,6,0,0,1-2.15.3l.23,2.51h-2.29v-2.45a7.11,7.11,0,0,1-2.28-.79,15.81,15.81,0,0,0-2.44-2.1,1.46,1.46,0,0,1-.53-1.21,6.7,6.7,0,0,0-.17-2.56,7.36,7.36,0,0,0-.7-2.14c-.5-.78,0-1.57.57-2.18a7,7,0,0,1,1-.71,2.51,2.51,0,0,1,.89-2.91c.65-.57,1.21-1.35,1.94-2C1161.53,90.5,1163.66,90.89,1164.5,93.2Z"/><path class="cls-4" d="M1176,147.32c-2.35,1.46-3.44,1.16-4.3-1.14-.22-.6-.88-1.2-.8-1.73a15.5,15.5,0,0,1,1.21-4.53c.59-1.18,2.24-1.83,3.06-3.1a.57.57,0,0,1,.35-.16,4.67,4.67,0,0,0,3.26-1.65,1.32,1.32,0,0,1,1.2-.29c1.09.77,2.31.59,3.49.75a1.44,1.44,0,0,1,.78.47,17,17,0,0,1,2.7,3.22,11.06,11.06,0,0,1,1.45,4.64c0,1.2-.45,2.48-.39,3.78a1.7,1.7,0,0,1-.9,1.18,3.81,3.81,0,0,1-5-1.7c-4.52.6-6.17,3.26-4.7,7.6h-2.5c-.14-1.81-.26-3.57.74-5.25A6,6,0,0,0,1176,147.32Zm3-1.83-.9,1.85.22.2,2.24-1.62Z"/><path class="cls-4" d="M1093,100.32c-2.35,1.46-3.44,1.16-4.3-1.14-.22-.6-.88-1.2-.8-1.73a15.5,15.5,0,0,1,1.21-4.53c.59-1.18,2.24-1.83,3.06-3.1a.57.57,0,0,1,.35-.16,4.67,4.67,0,0,0,3.26-1.65,1.32,1.32,0,0,1,1.2-.29c1.09.77,2.31.59,3.49.75a1.44,1.44,0,0,1,.78.47,17,17,0,0,1,2.7,3.22,11.06,11.06,0,0,1,1.45,4.64c0,1.2-.45,2.48-.39,3.78a1.7,1.7,0,0,1-.9,1.18,3.81,3.81,0,0,1-5-1.7c-4.52.6-6.17,3.26-4.7,7.6h-2.5c-.14-1.81-.26-3.57.74-5.25A6,6,0,0,0,1093,100.32Zm3-1.83-.9,1.85.22.2,2.24-1.62Z"/><path class="cls-5" d="M1123.19,134.36l-2.65-.18c1.31-1.72,2.42-3.19,3.68-4.87l-2.44.18c1.63-2.7,3.11-5.14,4.59-7.57l.45-.07,4.68,7.67-2.48-.24,3.66,4.86-2.6.25c.85,1.29,1.63,2.45,2.37,3.63a3.06,3.06,0,0,1,.22.95,2.8,2.8,0,0,1-1,0c-.89-.26-1.77-.6-2.65-.92s-1.19,0-1.12.86a5.81,5.81,0,0,0,.09.58c.3,2.57.89,2.27-2.09,2.32-.85,0-1-.35-.87-1.08.1-.53.19-1.08.24-1.62.09-1.19-.12-1.37-1.23-1-.89.28-1.76.64-2.65.92a2.49,2.49,0,0,1-.77,0,1.81,1.81,0,0,1,.07-.85C1121.46,137,1122.27,135.76,1123.19,134.36Z"/><path class="cls-5" d="M1086.19,217.36l-2.65-.18c1.31-1.72,2.42-3.19,3.68-4.87l-2.44.18c1.63-2.7,3.11-5.14,4.59-7.57l.45-.07,4.68,7.67-2.48-.24,3.66,4.86-2.6.25c.85,1.29,1.63,2.45,2.37,3.63a3.06,3.06,0,0,1,.22.95,2.8,2.8,0,0,1-1,0c-.89-.26-1.77-.6-2.65-.92s-1.19,0-1.12.86a5.81,5.81,0,0,0,.09.58c.3,2.57.89,2.27-2.09,2.32-.85,0-1-.35-.87-1.08.1-.53.19-1.08.24-1.62.09-1.19-.12-1.37-1.23-1-.89.28-1.76.64-2.65.92a2.49,2.49,0,0,1-.77,0,1.81,1.81,0,0,1,.07-.85C1084.46,220,1085.27,218.76,1086.19,217.36Z"/><path class="cls-5" d="M1182.19,110.36l-2.65-.18c1.31-1.72,2.42-3.19,3.68-4.87l-2.44.18c1.63-2.7,3.11-5.14,4.59-7.57l.45-.07,4.68,7.67-2.48-.24,3.66,4.86-2.6.25c.85,1.29,1.63,2.45,2.37,3.63a3.06,3.06,0,0,1,.22,1,2.8,2.8,0,0,1-1,0c-.89-.26-1.77-.6-2.65-.92s-1.19,0-1.12.86a5.81,5.81,0,0,0,.09.58c.3,2.57.89,2.27-2.09,2.32-.85,0-1-.35-.87-1.08.1-.53.19-1.08.24-1.62.09-1.19-.12-1.37-1.23-1-.89.28-1.76.64-2.65.92a2.49,2.49,0,0,1-.77,0,1.81,1.81,0,0,1,.07-.85C1180.46,113,1181.27,111.76,1182.19,110.36Z"/><path class="cls-2" d="M1201.88,142.07l.24,4.15,1.3-.8c-.4-2.9.53-4.69,2.82-5.52,1.51-.55,2.86,0,3.87,1.62s1.07,3.31,0,4.32a4.83,4.83,0,0,1-6.15.13,2.7,2.7,0,0,0-1.49,3c.13,1.28.29,2.56.44,3.9l-1,.13c-.86.12-1.24-.11-1.13-1.12a17.87,17.87,0,0,0,0-3.43,3.41,3.41,0,0,0-1.55-2.79c-2.35,1.41-4,1.41-5.6,0a3.9,3.9,0,0,1-.08-5.56,3,3,0,0,1,2.14-.57,5.21,5.21,0,0,1,3.84,2.57,3.31,3.31,0,0,1,.32,2.07c-.16,1.21-.24,1.2,1.26,1.93,0-1.39.07-2.64.07-3.9,0-.12-.25-.25-.4-.35a6.27,6.27,0,0,1-2.9-5.32c-.14-1.81,1.36-3.11,3.65-3.43a3.41,3.41,0,0,1,3.86,2.69A5.44,5.44,0,0,1,1201.88,142.07Z"/><path class="cls-2" d="M1156.88,156.07l.24,4.15,1.3-.8c-.4-2.9.53-4.69,2.82-5.52,1.51-.55,2.86,0,3.87,1.62s1.07,3.31,0,4.32a4.83,4.83,0,0,1-6.15.13,2.7,2.7,0,0,0-1.49,3c.13,1.28.29,2.56.44,3.9l-1,.13c-.86.12-1.24-.11-1.13-1.12a17.87,17.87,0,0,0,0-3.43,3.41,3.41,0,0,0-1.55-2.79c-2.35,1.41-4,1.41-5.6,0a3.9,3.9,0,0,1-.08-5.56,3,3,0,0,1,2.14-.57,5.21,5.21,0,0,1,3.84,2.57,3.31,3.31,0,0,1,.32,2.07c-.16,1.21-.24,1.2,1.26,1.93,0-1.39.07-2.64.07-3.9,0-.12-.25-.25-.4-.35a6.27,6.27,0,0,1-2.9-5.32c-.14-1.81,1.36-3.11,3.65-3.43a3.41,3.41,0,0,1,3.86,2.69A5.44,5.44,0,0,1,1156.88,156.07Z"/><path class="cls-3" d="M1236.05,172.74c2.27.15,3,1,2.84,3.2a1.16,1.16,0,0,0,.48.85,1.75,1.75,0,0,1,1,2,1.14,1.14,0,0,0,.08.75c1,1.83,1,2.37-.61,3.65a3.23,3.23,0,0,1,.34,1.05c0,.44-.08,1.19-.32,1.27-1.24.42-1.63,1.73-2.6,2.34a6,6,0,0,1-2.15.3l.23,2.51h-2.29V188.2a7.11,7.11,0,0,1-2.28-.79,15.22,15.22,0,0,0-2.44-2.09,1.46,1.46,0,0,1-.53-1.21,6.69,6.69,0,0,0-.17-2.56,7.36,7.36,0,0,0-.7-2.14c-.5-.78,0-1.57.57-2.18a7,7,0,0,1,1-.71,2.53,2.53,0,0,1,.89-2.92c.65-.57,1.21-1.35,1.94-2C1233.08,170,1235.21,170.42,1236.05,172.74Z"/><path class="cls-4" d="M1229,131.32c-2.35,1.46-3.44,1.16-4.3-1.14-.22-.6-.88-1.2-.8-1.73a15.5,15.5,0,0,1,1.21-4.53c.59-1.18,2.24-1.83,3.06-3.1a.57.57,0,0,1,.35-.16,4.67,4.67,0,0,0,3.26-1.65,1.32,1.32,0,0,1,1.2-.29c1.09.77,2.31.59,3.49.75a1.44,1.44,0,0,1,.78.47,17,17,0,0,1,2.7,3.22,11.06,11.06,0,0,1,1.45,4.64c0,1.2-.45,2.48-.39,3.78a1.7,1.7,0,0,1-.9,1.18,3.81,3.81,0,0,1-5-1.7c-4.52.6-6.17,3.26-4.7,7.6h-2.5c-.14-1.81-.26-3.57.74-5.25A6,6,0,0,0,1229,131.32Zm3-1.83-.9,1.85.22.2,2.24-1.62Z"/><path class="cls-4" d="M1198,207.32c-2.35,1.46-3.44,1.16-4.3-1.14-.22-.6-.88-1.2-.8-1.73a15.5,15.5,0,0,1,1.21-4.53c.59-1.18,2.24-1.83,3.06-3.1a.57.57,0,0,1,.35-.16,4.67,4.67,0,0,0,3.26-1.65,1.32,1.32,0,0,1,1.2-.29c1.09.77,2.31.59,3.49.75a1.44,1.44,0,0,1,.78.47,17,17,0,0,1,2.7,3.22,11.06,11.06,0,0,1,1.45,4.64c0,1.2-.45,2.48-.39,3.78a1.7,1.7,0,0,1-.9,1.18,3.81,3.81,0,0,1-5-1.7c-4.52.6-6.17,3.26-4.7,7.6h-2.5c-.14-1.81-.26-3.57.74-5.25A6,6,0,0,0,1198,207.32Zm3-1.83-.9,1.85.22.2,2.24-1.62Z"/><path class="cls-5" d="M1185.19,222.36l-2.65-.18c1.31-1.72,2.42-3.19,3.68-4.87l-2.44.18c1.63-2.7,3.11-5.14,4.59-7.57l.45-.07,4.68,7.67-2.48-.24,3.66,4.86-2.6.25c.85,1.29,1.63,2.45,2.37,3.63a3.06,3.06,0,0,1,.22.95,2.8,2.8,0,0,1-1,0c-.89-.26-1.77-.6-2.65-.92s-1.19,0-1.12.86a5.81,5.81,0,0,0,.09.58c.3,2.57.89,2.27-2.09,2.32-.85,0-1-.35-.87-1.08.1-.53.19-1.08.24-1.62.09-1.19-.12-1.37-1.23-1-.89.28-1.76.64-2.65.92a2.49,2.49,0,0,1-.77,0,1.81,1.81,0,0,1,.07-.85C1183.46,225,1184.27,223.76,1185.19,222.36Z"/><line class="cls-16" x1="296" y1="157" x2="391.83" y2="157"/><polygon class="cls-17" points="385.2 165.18 383.84 163.72 391.06 157 383.84 150.29 385.2 148.82 394 157 385.2 165.18"/><line class="cls-16" x1="462" y1="157" x2="557.83" y2="157"/><polygon class="cls-17" points="551.2 165.18 549.84 163.72 557.06 157 549.84 150.29 551.2 148.82 560 157 551.2 165.18"/><text class="cls-6" transform="translate(889.36 121.68)">t<tspan class="cls-11" x="6.54" y="0">r</tspan><tspan x="12.8" y="0">eino n</tspan></text><circle class="cls-1" cx="918.79" cy="157" r="22.25"/><line class="cls-16" x1="885" y1="157" x2="789.17" y2="157"/><polygon class="cls-17" points="795.8 148.82 797.16 150.28 789.94 157 797.16 163.71 795.8 165.18 787 157 795.8 148.82"/><line class="cls-16" x1="1051" y1="157" x2="955.17" y2="157"/><polygon class="cls-17" points="961.8 148.82 963.16 150.28 955.94 157 963.16 163.71 961.8 165.18 953 157 961.8 148.82"/><text class="cls-6" transform="translate(635.57 465.68)">p<tspan class="cls-14" x="11.24" y="0">r</tspan><tspan class="cls-15" x="17.5" y="0">edi</tspan><tspan class="cls-7" x="43.16" y="0"></tspan><tspan x="51.89" y="0">es</tspan></text><circle class="cls-1" cx="675.79" cy="418.42" r="22.25"/><line class="cls-16" x1="301" y1="418.42" x2="634.83" y2="418.42"/><polygon class="cls-17" points="628.2 426.6 626.84 425.14 634.06 418.42 626.84 411.71 628.2 410.24 637 418.42 628.2 426.6"/><line class="cls-16" x1="710" y1="418.42" x2="757.83" y2="418.02"/><polygon class="cls-17" points="751.27 426.25 749.9 424.8 757.06 418.03 749.78 411.37 751.13 409.9 760 418 751.27 426.25"/><line class="cls-16" x1="999" y1="418" x2="1046.83" y2="417.6"/><polygon class="cls-17" points="1040.27 425.83 1038.9 424.38 1046.06 417.61 1038.78 410.95 1040.13 409.48 1049 417.58 1040.27 425.83"/><line class="cls-16" x1="674" y1="267" x2="674" y2="362.83"/><polygon class="cls-17" points="665.82 356.2 667.28 354.84 674 362.06 680.71 354.84 682.18 356.2 674 365 665.82 356.2"/><line class="cls-16" x1="1164" y1="316" x2="1164" y2="264.17"/><polygon class="cls-17" points="1172.18 270.8 1170.71 272.16 1164 264.94 1157.29 272.16 1155.82 270.8 1164 262 1172.18 270.8"/></g></svg>